M48
; DRILL file {KiCad (5.1.4)-1} date 9/29/2019 4:50:42 PM
; FORMAT={-:-/ absolute / inch / decimal}
; #@! TF.CreationDate,2019-09-29T16:50:42-04:00
; #@! TF.GenerationSoftware,Kicad,Pcbnew,(5.1.4)-1
; #@! TF.FileFunction,Plated,1,2,PTH
FMAT,2
INCH
T1C0.0130
T2C0.0236
T3C0.0335
T4C0.0402
%
G90
G05
T1
X2.2814Y-1.86
X2.337Y-1.4819
X2.3454Y-2.1797
X2.6024Y-1.7233
X2.7149Y-1.8734
X2.8236Y-2.0495
X2.8375Y-2.2598
X2.9Y-2.425
X3.0578Y-2.4655
X3.147Y-1.4146
X3.1492Y-1.7022
X3.1503Y-2.4659
X3.3088Y-1.7077
X3.3261Y-1.6283
X3.3618Y-1.9239
X3.4763Y-2.1521
X3.4806Y-1.7846
T3
X3.0159Y-2.4187
X3.2128Y-2.4187
T4
X2.2Y-2.425
X2.3Y-2.425
X2.4Y-2.425
T2
G00X2.9766Y-2.5388
M15
G01X2.9766Y-2.5112
M16
G05
G00X3.2522Y-2.5112
M15
G01X3.2522Y-2.5388
M16
G05
T0
M30
