G04 #@! TF.GenerationSoftware,KiCad,Pcbnew,(5.1.4)-1*
G04 #@! TF.CreationDate,2019-09-29T16:50:29-04:00*
G04 #@! TF.ProjectId,espDisp,65737044-6973-4702-9e6b-696361645f70,rev?*
G04 #@! TF.SameCoordinates,Original*
G04 #@! TF.FileFunction,Legend,Top*
G04 #@! TF.FilePolarity,Positive*
%FSLAX46Y46*%
G04 Gerber Fmt 4.6, Leading zero omitted, Abs format (unit mm)*
G04 Created by KiCad (PCBNEW (5.1.4)-1) date 2019-09-29 16:50:29*
%MOMM*%
%LPD*%
G04 APERTURE LIST*
%ADD10C,0.100000*%
%ADD11C,0.120000*%
%ADD12C,0.150000*%
G04 APERTURE END LIST*
D10*
X76425000Y-57980000D02*
X77425000Y-57980000D01*
X77425000Y-57980000D02*
X77425000Y-57380000D01*
X77425000Y-54380000D02*
X77425000Y-53780000D01*
X77425000Y-53780000D02*
X76525000Y-53780000D01*
X68625000Y-54080000D02*
X68625000Y-53780000D01*
X68625000Y-53780000D02*
X69525000Y-53780000D01*
X68625000Y-57180000D02*
X68625000Y-57580000D01*
X68625000Y-57580000D02*
X69025000Y-57980000D01*
X69025000Y-57980000D02*
X69825000Y-57980000D01*
X69825000Y-57980000D02*
X69825000Y-58380000D01*
X69820000Y-43755000D02*
X69820000Y-44055000D01*
X69445000Y-43755000D02*
X69820000Y-43755000D01*
X69820000Y-47055000D02*
X69370000Y-47055000D01*
X69820000Y-46755000D02*
X69820000Y-47055000D01*
X69820000Y-46830000D02*
X69820000Y-46705000D01*
X68170000Y-47055000D02*
X68170000Y-46705000D01*
X68645000Y-47055000D02*
X68170000Y-47055000D01*
X68170000Y-44080000D02*
X67395000Y-44080000D01*
X68170000Y-44030000D02*
X68170000Y-44080000D01*
X68545000Y-43755000D02*
X68170000Y-44030000D01*
X68820000Y-43755000D02*
X68545000Y-43755000D01*
X75610000Y-43755000D02*
X75335000Y-43755000D01*
X75335000Y-43755000D02*
X74960000Y-44030000D01*
X74960000Y-44030000D02*
X74960000Y-44080000D01*
X74960000Y-44080000D02*
X74185000Y-44080000D01*
X75435000Y-47055000D02*
X74960000Y-47055000D01*
X74960000Y-47055000D02*
X74960000Y-46705000D01*
X76610000Y-46830000D02*
X76610000Y-46705000D01*
X76610000Y-46755000D02*
X76610000Y-47055000D01*
X76610000Y-47055000D02*
X76160000Y-47055000D01*
X76235000Y-43755000D02*
X76610000Y-43755000D01*
X76610000Y-43755000D02*
X76610000Y-44055000D01*
X72705000Y-40740000D02*
X73180000Y-40740000D01*
X73180000Y-40740000D02*
X73505000Y-40440000D01*
X73505000Y-40440000D02*
X73700000Y-40440000D01*
X73030000Y-34190000D02*
X73505000Y-34190000D01*
X73505000Y-34190000D02*
X73505000Y-34640000D01*
X69955000Y-40240000D02*
X69955000Y-40740000D01*
X69955000Y-40740000D02*
X70355000Y-40740000D01*
X69955000Y-34565000D02*
X69955000Y-34190000D01*
X69955000Y-34190000D02*
X70255000Y-34190000D01*
D11*
X78030000Y-63123578D02*
X78030000Y-62606422D01*
X79450000Y-63123578D02*
X79450000Y-62606422D01*
X66631078Y-58980000D02*
X66113922Y-58980000D01*
X66631078Y-60400000D02*
X66113922Y-60400000D01*
X59615000Y-35516078D02*
X59615000Y-34998922D01*
X61035000Y-35516078D02*
X61035000Y-34998922D01*
X59615000Y-53296078D02*
X59615000Y-52778922D01*
X61035000Y-53296078D02*
X61035000Y-52778922D01*
X79450000Y-37723578D02*
X79450000Y-37206422D01*
X78030000Y-37723578D02*
X78030000Y-37206422D01*
X87705000Y-51361078D02*
X87705000Y-50843922D01*
X86285000Y-51361078D02*
X86285000Y-50843922D01*
X55805000Y-39931078D02*
X55805000Y-39413922D01*
X57225000Y-39931078D02*
X57225000Y-39413922D01*
X69775000Y-50091078D02*
X69775000Y-49573922D01*
X71195000Y-50091078D02*
X71195000Y-49573922D01*
X61035000Y-39931078D02*
X61035000Y-39413922D01*
X59615000Y-39931078D02*
X59615000Y-39413922D01*
X75005000Y-50091078D02*
X75005000Y-49573922D01*
X73585000Y-50091078D02*
X73585000Y-49573922D01*
X77395000Y-50091078D02*
X77395000Y-49573922D01*
X78815000Y-50091078D02*
X78815000Y-49573922D01*
X59615000Y-49091078D02*
X59615000Y-48573922D01*
X61035000Y-49091078D02*
X61035000Y-48573922D01*
X59615000Y-44406078D02*
X59615000Y-43888922D01*
X61035000Y-44406078D02*
X61035000Y-43888922D01*
X57225000Y-44406078D02*
X57225000Y-43888922D01*
X55805000Y-44406078D02*
X55805000Y-43888922D01*
X86285000Y-47551078D02*
X86285000Y-47033922D01*
X87705000Y-47551078D02*
X87705000Y-47033922D01*
X57225000Y-53296078D02*
X57225000Y-52778922D01*
X55805000Y-53296078D02*
X55805000Y-52778922D01*
D12*
X66477380Y-56641904D02*
X67286904Y-56641904D01*
X67382142Y-56594285D01*
X67429761Y-56546666D01*
X67477380Y-56451428D01*
X67477380Y-56260952D01*
X67429761Y-56165714D01*
X67382142Y-56118095D01*
X67286904Y-56070476D01*
X66477380Y-56070476D01*
X66572619Y-55641904D02*
X66525000Y-55594285D01*
X66477380Y-55499047D01*
X66477380Y-55260952D01*
X66525000Y-55165714D01*
X66572619Y-55118095D01*
X66667857Y-55070476D01*
X66763095Y-55070476D01*
X66905952Y-55118095D01*
X67477380Y-55689523D01*
X67477380Y-55070476D01*
X68924761Y-43092619D02*
X68829523Y-43045000D01*
X68734285Y-42949761D01*
X68591428Y-42806904D01*
X68496190Y-42759285D01*
X68400952Y-42759285D01*
X68448571Y-42997380D02*
X68353333Y-42949761D01*
X68258095Y-42854523D01*
X68210476Y-42664047D01*
X68210476Y-42330714D01*
X68258095Y-42140238D01*
X68353333Y-42045000D01*
X68448571Y-41997380D01*
X68639047Y-41997380D01*
X68734285Y-42045000D01*
X68829523Y-42140238D01*
X68877142Y-42330714D01*
X68877142Y-42664047D01*
X68829523Y-42854523D01*
X68734285Y-42949761D01*
X68639047Y-42997380D01*
X68448571Y-42997380D01*
X69829523Y-42997380D02*
X69258095Y-42997380D01*
X69543809Y-42997380D02*
X69543809Y-41997380D01*
X69448571Y-42140238D01*
X69353333Y-42235476D01*
X69258095Y-42283095D01*
X75714761Y-43092619D02*
X75619523Y-43045000D01*
X75524285Y-42949761D01*
X75381428Y-42806904D01*
X75286190Y-42759285D01*
X75190952Y-42759285D01*
X75238571Y-42997380D02*
X75143333Y-42949761D01*
X75048095Y-42854523D01*
X75000476Y-42664047D01*
X75000476Y-42330714D01*
X75048095Y-42140238D01*
X75143333Y-42045000D01*
X75238571Y-41997380D01*
X75429047Y-41997380D01*
X75524285Y-42045000D01*
X75619523Y-42140238D01*
X75667142Y-42330714D01*
X75667142Y-42664047D01*
X75619523Y-42854523D01*
X75524285Y-42949761D01*
X75429047Y-42997380D01*
X75238571Y-42997380D01*
X76048095Y-42092619D02*
X76095714Y-42045000D01*
X76190952Y-41997380D01*
X76429047Y-41997380D01*
X76524285Y-42045000D01*
X76571904Y-42092619D01*
X76619523Y-42187857D01*
X76619523Y-42283095D01*
X76571904Y-42425952D01*
X76000476Y-42997380D01*
X76619523Y-42997380D01*
X66127380Y-38226904D02*
X66936904Y-38226904D01*
X67032142Y-38179285D01*
X67079761Y-38131666D01*
X67127380Y-38036428D01*
X67127380Y-37845952D01*
X67079761Y-37750714D01*
X67032142Y-37703095D01*
X66936904Y-37655476D01*
X66127380Y-37655476D01*
X67127380Y-36655476D02*
X67127380Y-37226904D01*
X67127380Y-36941190D02*
X66127380Y-36941190D01*
X66270238Y-37036428D01*
X66365476Y-37131666D01*
X66413095Y-37226904D01*
X77447142Y-63031666D02*
X77494761Y-63079285D01*
X77542380Y-63222142D01*
X77542380Y-63317380D01*
X77494761Y-63460238D01*
X77399523Y-63555476D01*
X77304285Y-63603095D01*
X77113809Y-63650714D01*
X76970952Y-63650714D01*
X76780476Y-63603095D01*
X76685238Y-63555476D01*
X76590000Y-63460238D01*
X76542380Y-63317380D01*
X76542380Y-63222142D01*
X76590000Y-63079285D01*
X76637619Y-63031666D01*
X77542380Y-62079285D02*
X77542380Y-62650714D01*
X77542380Y-62365000D02*
X76542380Y-62365000D01*
X76685238Y-62460238D01*
X76780476Y-62555476D01*
X76828095Y-62650714D01*
X66205833Y-61697142D02*
X66158214Y-61744761D01*
X66015357Y-61792380D01*
X65920119Y-61792380D01*
X65777261Y-61744761D01*
X65682023Y-61649523D01*
X65634404Y-61554285D01*
X65586785Y-61363809D01*
X65586785Y-61220952D01*
X65634404Y-61030476D01*
X65682023Y-60935238D01*
X65777261Y-60840000D01*
X65920119Y-60792380D01*
X66015357Y-60792380D01*
X66158214Y-60840000D01*
X66205833Y-60887619D01*
X66586785Y-60887619D02*
X66634404Y-60840000D01*
X66729642Y-60792380D01*
X66967738Y-60792380D01*
X67062976Y-60840000D01*
X67110595Y-60887619D01*
X67158214Y-60982857D01*
X67158214Y-61078095D01*
X67110595Y-61220952D01*
X66539166Y-61792380D01*
X67158214Y-61792380D01*
X59032142Y-35424166D02*
X59079761Y-35471785D01*
X59127380Y-35614642D01*
X59127380Y-35709880D01*
X59079761Y-35852738D01*
X58984523Y-35947976D01*
X58889285Y-35995595D01*
X58698809Y-36043214D01*
X58555952Y-36043214D01*
X58365476Y-35995595D01*
X58270238Y-35947976D01*
X58175000Y-35852738D01*
X58127380Y-35709880D01*
X58127380Y-35614642D01*
X58175000Y-35471785D01*
X58222619Y-35424166D01*
X58127380Y-34519404D02*
X58127380Y-34995595D01*
X58603571Y-35043214D01*
X58555952Y-34995595D01*
X58508333Y-34900357D01*
X58508333Y-34662261D01*
X58555952Y-34567023D01*
X58603571Y-34519404D01*
X58698809Y-34471785D01*
X58936904Y-34471785D01*
X59032142Y-34519404D01*
X59079761Y-34567023D01*
X59127380Y-34662261D01*
X59127380Y-34900357D01*
X59079761Y-34995595D01*
X59032142Y-35043214D01*
X59032142Y-53204166D02*
X59079761Y-53251785D01*
X59127380Y-53394642D01*
X59127380Y-53489880D01*
X59079761Y-53632738D01*
X58984523Y-53727976D01*
X58889285Y-53775595D01*
X58698809Y-53823214D01*
X58555952Y-53823214D01*
X58365476Y-53775595D01*
X58270238Y-53727976D01*
X58175000Y-53632738D01*
X58127380Y-53489880D01*
X58127380Y-53394642D01*
X58175000Y-53251785D01*
X58222619Y-53204166D01*
X58127380Y-52347023D02*
X58127380Y-52537500D01*
X58175000Y-52632738D01*
X58222619Y-52680357D01*
X58365476Y-52775595D01*
X58555952Y-52823214D01*
X58936904Y-52823214D01*
X59032142Y-52775595D01*
X59079761Y-52727976D01*
X59127380Y-52632738D01*
X59127380Y-52442261D01*
X59079761Y-52347023D01*
X59032142Y-52299404D01*
X58936904Y-52251785D01*
X58698809Y-52251785D01*
X58603571Y-52299404D01*
X58555952Y-52347023D01*
X58508333Y-52442261D01*
X58508333Y-52632738D01*
X58555952Y-52727976D01*
X58603571Y-52775595D01*
X58698809Y-52823214D01*
X77447142Y-37631666D02*
X77494761Y-37679285D01*
X77542380Y-37822142D01*
X77542380Y-37917380D01*
X77494761Y-38060238D01*
X77399523Y-38155476D01*
X77304285Y-38203095D01*
X77113809Y-38250714D01*
X76970952Y-38250714D01*
X76780476Y-38203095D01*
X76685238Y-38155476D01*
X76590000Y-38060238D01*
X76542380Y-37917380D01*
X76542380Y-37822142D01*
X76590000Y-37679285D01*
X76637619Y-37631666D01*
X76542380Y-37298333D02*
X76542380Y-36631666D01*
X77542380Y-37060238D01*
X85797380Y-51269166D02*
X85321190Y-51602500D01*
X85797380Y-51840595D02*
X84797380Y-51840595D01*
X84797380Y-51459642D01*
X84845000Y-51364404D01*
X84892619Y-51316785D01*
X84987857Y-51269166D01*
X85130714Y-51269166D01*
X85225952Y-51316785D01*
X85273571Y-51364404D01*
X85321190Y-51459642D01*
X85321190Y-51840595D01*
X85797380Y-50316785D02*
X85797380Y-50888214D01*
X85797380Y-50602500D02*
X84797380Y-50602500D01*
X84940238Y-50697738D01*
X85035476Y-50792976D01*
X85083095Y-50888214D01*
X55317380Y-39839166D02*
X54841190Y-40172500D01*
X55317380Y-40410595D02*
X54317380Y-40410595D01*
X54317380Y-40029642D01*
X54365000Y-39934404D01*
X54412619Y-39886785D01*
X54507857Y-39839166D01*
X54650714Y-39839166D01*
X54745952Y-39886785D01*
X54793571Y-39934404D01*
X54841190Y-40029642D01*
X54841190Y-40410595D01*
X54412619Y-39458214D02*
X54365000Y-39410595D01*
X54317380Y-39315357D01*
X54317380Y-39077261D01*
X54365000Y-38982023D01*
X54412619Y-38934404D01*
X54507857Y-38886785D01*
X54603095Y-38886785D01*
X54745952Y-38934404D01*
X55317380Y-39505833D01*
X55317380Y-38886785D01*
X69287380Y-49999166D02*
X68811190Y-50332500D01*
X69287380Y-50570595D02*
X68287380Y-50570595D01*
X68287380Y-50189642D01*
X68335000Y-50094404D01*
X68382619Y-50046785D01*
X68477857Y-49999166D01*
X68620714Y-49999166D01*
X68715952Y-50046785D01*
X68763571Y-50094404D01*
X68811190Y-50189642D01*
X68811190Y-50570595D01*
X68287380Y-49665833D02*
X68287380Y-49046785D01*
X68668333Y-49380119D01*
X68668333Y-49237261D01*
X68715952Y-49142023D01*
X68763571Y-49094404D01*
X68858809Y-49046785D01*
X69096904Y-49046785D01*
X69192142Y-49094404D01*
X69239761Y-49142023D01*
X69287380Y-49237261D01*
X69287380Y-49522976D01*
X69239761Y-49618214D01*
X69192142Y-49665833D01*
X59127380Y-39839166D02*
X58651190Y-40172500D01*
X59127380Y-40410595D02*
X58127380Y-40410595D01*
X58127380Y-40029642D01*
X58175000Y-39934404D01*
X58222619Y-39886785D01*
X58317857Y-39839166D01*
X58460714Y-39839166D01*
X58555952Y-39886785D01*
X58603571Y-39934404D01*
X58651190Y-40029642D01*
X58651190Y-40410595D01*
X58460714Y-38982023D02*
X59127380Y-38982023D01*
X58079761Y-39220119D02*
X58794047Y-39458214D01*
X58794047Y-38839166D01*
X73097380Y-49999166D02*
X72621190Y-50332500D01*
X73097380Y-50570595D02*
X72097380Y-50570595D01*
X72097380Y-50189642D01*
X72145000Y-50094404D01*
X72192619Y-50046785D01*
X72287857Y-49999166D01*
X72430714Y-49999166D01*
X72525952Y-50046785D01*
X72573571Y-50094404D01*
X72621190Y-50189642D01*
X72621190Y-50570595D01*
X72097380Y-49094404D02*
X72097380Y-49570595D01*
X72573571Y-49618214D01*
X72525952Y-49570595D01*
X72478333Y-49475357D01*
X72478333Y-49237261D01*
X72525952Y-49142023D01*
X72573571Y-49094404D01*
X72668809Y-49046785D01*
X72906904Y-49046785D01*
X73002142Y-49094404D01*
X73049761Y-49142023D01*
X73097380Y-49237261D01*
X73097380Y-49475357D01*
X73049761Y-49570595D01*
X73002142Y-49618214D01*
X76907380Y-49999166D02*
X76431190Y-50332500D01*
X76907380Y-50570595D02*
X75907380Y-50570595D01*
X75907380Y-50189642D01*
X75955000Y-50094404D01*
X76002619Y-50046785D01*
X76097857Y-49999166D01*
X76240714Y-49999166D01*
X76335952Y-50046785D01*
X76383571Y-50094404D01*
X76431190Y-50189642D01*
X76431190Y-50570595D01*
X75907380Y-49142023D02*
X75907380Y-49332500D01*
X75955000Y-49427738D01*
X76002619Y-49475357D01*
X76145476Y-49570595D01*
X76335952Y-49618214D01*
X76716904Y-49618214D01*
X76812142Y-49570595D01*
X76859761Y-49522976D01*
X76907380Y-49427738D01*
X76907380Y-49237261D01*
X76859761Y-49142023D01*
X76812142Y-49094404D01*
X76716904Y-49046785D01*
X76478809Y-49046785D01*
X76383571Y-49094404D01*
X76335952Y-49142023D01*
X76288333Y-49237261D01*
X76288333Y-49427738D01*
X76335952Y-49522976D01*
X76383571Y-49570595D01*
X76478809Y-49618214D01*
X59127380Y-48999166D02*
X58651190Y-49332500D01*
X59127380Y-49570595D02*
X58127380Y-49570595D01*
X58127380Y-49189642D01*
X58175000Y-49094404D01*
X58222619Y-49046785D01*
X58317857Y-48999166D01*
X58460714Y-48999166D01*
X58555952Y-49046785D01*
X58603571Y-49094404D01*
X58651190Y-49189642D01*
X58651190Y-49570595D01*
X58127380Y-48665833D02*
X58127380Y-47999166D01*
X59127380Y-48427738D01*
X59127380Y-44314166D02*
X58651190Y-44647500D01*
X59127380Y-44885595D02*
X58127380Y-44885595D01*
X58127380Y-44504642D01*
X58175000Y-44409404D01*
X58222619Y-44361785D01*
X58317857Y-44314166D01*
X58460714Y-44314166D01*
X58555952Y-44361785D01*
X58603571Y-44409404D01*
X58651190Y-44504642D01*
X58651190Y-44885595D01*
X58555952Y-43742738D02*
X58508333Y-43837976D01*
X58460714Y-43885595D01*
X58365476Y-43933214D01*
X58317857Y-43933214D01*
X58222619Y-43885595D01*
X58175000Y-43837976D01*
X58127380Y-43742738D01*
X58127380Y-43552261D01*
X58175000Y-43457023D01*
X58222619Y-43409404D01*
X58317857Y-43361785D01*
X58365476Y-43361785D01*
X58460714Y-43409404D01*
X58508333Y-43457023D01*
X58555952Y-43552261D01*
X58555952Y-43742738D01*
X58603571Y-43837976D01*
X58651190Y-43885595D01*
X58746428Y-43933214D01*
X58936904Y-43933214D01*
X59032142Y-43885595D01*
X59079761Y-43837976D01*
X59127380Y-43742738D01*
X59127380Y-43552261D01*
X59079761Y-43457023D01*
X59032142Y-43409404D01*
X58936904Y-43361785D01*
X58746428Y-43361785D01*
X58651190Y-43409404D01*
X58603571Y-43457023D01*
X58555952Y-43552261D01*
X55317380Y-44314166D02*
X54841190Y-44647500D01*
X55317380Y-44885595D02*
X54317380Y-44885595D01*
X54317380Y-44504642D01*
X54365000Y-44409404D01*
X54412619Y-44361785D01*
X54507857Y-44314166D01*
X54650714Y-44314166D01*
X54745952Y-44361785D01*
X54793571Y-44409404D01*
X54841190Y-44504642D01*
X54841190Y-44885595D01*
X55317380Y-43837976D02*
X55317380Y-43647500D01*
X55269761Y-43552261D01*
X55222142Y-43504642D01*
X55079285Y-43409404D01*
X54888809Y-43361785D01*
X54507857Y-43361785D01*
X54412619Y-43409404D01*
X54365000Y-43457023D01*
X54317380Y-43552261D01*
X54317380Y-43742738D01*
X54365000Y-43837976D01*
X54412619Y-43885595D01*
X54507857Y-43933214D01*
X54745952Y-43933214D01*
X54841190Y-43885595D01*
X54888809Y-43837976D01*
X54936428Y-43742738D01*
X54936428Y-43552261D01*
X54888809Y-43457023D01*
X54841190Y-43409404D01*
X54745952Y-43361785D01*
X85797380Y-47935357D02*
X85321190Y-48268690D01*
X85797380Y-48506785D02*
X84797380Y-48506785D01*
X84797380Y-48125833D01*
X84845000Y-48030595D01*
X84892619Y-47982976D01*
X84987857Y-47935357D01*
X85130714Y-47935357D01*
X85225952Y-47982976D01*
X85273571Y-48030595D01*
X85321190Y-48125833D01*
X85321190Y-48506785D01*
X85797380Y-46982976D02*
X85797380Y-47554404D01*
X85797380Y-47268690D02*
X84797380Y-47268690D01*
X84940238Y-47363928D01*
X85035476Y-47459166D01*
X85083095Y-47554404D01*
X84797380Y-46363928D02*
X84797380Y-46268690D01*
X84845000Y-46173452D01*
X84892619Y-46125833D01*
X84987857Y-46078214D01*
X85178333Y-46030595D01*
X85416428Y-46030595D01*
X85606904Y-46078214D01*
X85702142Y-46125833D01*
X85749761Y-46173452D01*
X85797380Y-46268690D01*
X85797380Y-46363928D01*
X85749761Y-46459166D01*
X85702142Y-46506785D01*
X85606904Y-46554404D01*
X85416428Y-46602023D01*
X85178333Y-46602023D01*
X84987857Y-46554404D01*
X84892619Y-46506785D01*
X84845000Y-46459166D01*
X84797380Y-46363928D01*
X55317380Y-53680357D02*
X54841190Y-54013690D01*
X55317380Y-54251785D02*
X54317380Y-54251785D01*
X54317380Y-53870833D01*
X54365000Y-53775595D01*
X54412619Y-53727976D01*
X54507857Y-53680357D01*
X54650714Y-53680357D01*
X54745952Y-53727976D01*
X54793571Y-53775595D01*
X54841190Y-53870833D01*
X54841190Y-54251785D01*
X55317380Y-52727976D02*
X55317380Y-53299404D01*
X55317380Y-53013690D02*
X54317380Y-53013690D01*
X54460238Y-53108928D01*
X54555476Y-53204166D01*
X54603095Y-53299404D01*
X55317380Y-51775595D02*
X55317380Y-52347023D01*
X55317380Y-52061309D02*
X54317380Y-52061309D01*
X54460238Y-52156547D01*
X54555476Y-52251785D01*
X54603095Y-52347023D01*
M02*
