G04 #@! TF.GenerationSoftware,KiCad,Pcbnew,(5.1.4)-1*
G04 #@! TF.CreationDate,2019-09-29T16:50:29-04:00*
G04 #@! TF.ProjectId,espDisp,65737044-6973-4702-9e6b-696361645f70,rev?*
G04 #@! TF.SameCoordinates,Original*
G04 #@! TF.FileFunction,Copper,L1,Top*
G04 #@! TF.FilePolarity,Positive*
%FSLAX46Y46*%
G04 Gerber Fmt 4.6, Leading zero omitted, Abs format (unit mm)*
G04 Created by KiCad (PCBNEW (5.1.4)-1) date 2019-09-29 16:50:29*
%MOMM*%
%LPD*%
G04 APERTURE LIST*
%ADD10R,0.450000X1.250000*%
%ADD11R,1.300000X0.600000*%
%ADD12R,2.200000X1.500000*%
%ADD13R,2.200000X3.800000*%
%ADD14C,1.450000*%
%ADD15O,1.200000X1.900000*%
%ADD16C,0.100000*%
%ADD17C,0.975000*%
%ADD18C,2.020000*%
%ADD19C,0.700000*%
%ADD20C,0.160000*%
%ADD21C,0.500000*%
G04 APERTURE END LIST*
D10*
X73342500Y-58559700D03*
X72707500Y-58559700D03*
X72072500Y-58559700D03*
X71437500Y-58559700D03*
X70802500Y-58559700D03*
X70167500Y-58559700D03*
X73977500Y-58559700D03*
X74612500Y-58559700D03*
X75247500Y-58559700D03*
X75882500Y-58559700D03*
X72707500Y-53200300D03*
X73342500Y-53200300D03*
X73977500Y-53200300D03*
X74612500Y-53200300D03*
X75247500Y-53200300D03*
X75882500Y-53200300D03*
X72072500Y-53200300D03*
X71437500Y-53200300D03*
X70802500Y-53200300D03*
X70167500Y-53200300D03*
D11*
X67945000Y-44455000D03*
X67945000Y-46355000D03*
X70045000Y-45405000D03*
X76835000Y-45405000D03*
X74735000Y-46355000D03*
X74735000Y-44455000D03*
D12*
X74880000Y-35165000D03*
X74880000Y-37465000D03*
X74880000Y-39765000D03*
D13*
X68580000Y-37465000D03*
D14*
X81605000Y-61435000D03*
X76605000Y-61435000D03*
D15*
X82605000Y-64135000D03*
X75605000Y-64135000D03*
D16*
G36*
X79220142Y-63316174D02*
G01*
X79243803Y-63319684D01*
X79267007Y-63325496D01*
X79289529Y-63333554D01*
X79311153Y-63343782D01*
X79331670Y-63356079D01*
X79350883Y-63370329D01*
X79368607Y-63386393D01*
X79384671Y-63404117D01*
X79398921Y-63423330D01*
X79411218Y-63443847D01*
X79421446Y-63465471D01*
X79429504Y-63487993D01*
X79435316Y-63511197D01*
X79438826Y-63534858D01*
X79440000Y-63558750D01*
X79440000Y-64046250D01*
X79438826Y-64070142D01*
X79435316Y-64093803D01*
X79429504Y-64117007D01*
X79421446Y-64139529D01*
X79411218Y-64161153D01*
X79398921Y-64181670D01*
X79384671Y-64200883D01*
X79368607Y-64218607D01*
X79350883Y-64234671D01*
X79331670Y-64248921D01*
X79311153Y-64261218D01*
X79289529Y-64271446D01*
X79267007Y-64279504D01*
X79243803Y-64285316D01*
X79220142Y-64288826D01*
X79196250Y-64290000D01*
X78283750Y-64290000D01*
X78259858Y-64288826D01*
X78236197Y-64285316D01*
X78212993Y-64279504D01*
X78190471Y-64271446D01*
X78168847Y-64261218D01*
X78148330Y-64248921D01*
X78129117Y-64234671D01*
X78111393Y-64218607D01*
X78095329Y-64200883D01*
X78081079Y-64181670D01*
X78068782Y-64161153D01*
X78058554Y-64139529D01*
X78050496Y-64117007D01*
X78044684Y-64093803D01*
X78041174Y-64070142D01*
X78040000Y-64046250D01*
X78040000Y-63558750D01*
X78041174Y-63534858D01*
X78044684Y-63511197D01*
X78050496Y-63487993D01*
X78058554Y-63465471D01*
X78068782Y-63443847D01*
X78081079Y-63423330D01*
X78095329Y-63404117D01*
X78111393Y-63386393D01*
X78129117Y-63370329D01*
X78148330Y-63356079D01*
X78168847Y-63343782D01*
X78190471Y-63333554D01*
X78212993Y-63325496D01*
X78236197Y-63319684D01*
X78259858Y-63316174D01*
X78283750Y-63315000D01*
X79196250Y-63315000D01*
X79220142Y-63316174D01*
X79220142Y-63316174D01*
G37*
D17*
X78740000Y-63802500D03*
D16*
G36*
X79220142Y-61441174D02*
G01*
X79243803Y-61444684D01*
X79267007Y-61450496D01*
X79289529Y-61458554D01*
X79311153Y-61468782D01*
X79331670Y-61481079D01*
X79350883Y-61495329D01*
X79368607Y-61511393D01*
X79384671Y-61529117D01*
X79398921Y-61548330D01*
X79411218Y-61568847D01*
X79421446Y-61590471D01*
X79429504Y-61612993D01*
X79435316Y-61636197D01*
X79438826Y-61659858D01*
X79440000Y-61683750D01*
X79440000Y-62171250D01*
X79438826Y-62195142D01*
X79435316Y-62218803D01*
X79429504Y-62242007D01*
X79421446Y-62264529D01*
X79411218Y-62286153D01*
X79398921Y-62306670D01*
X79384671Y-62325883D01*
X79368607Y-62343607D01*
X79350883Y-62359671D01*
X79331670Y-62373921D01*
X79311153Y-62386218D01*
X79289529Y-62396446D01*
X79267007Y-62404504D01*
X79243803Y-62410316D01*
X79220142Y-62413826D01*
X79196250Y-62415000D01*
X78283750Y-62415000D01*
X78259858Y-62413826D01*
X78236197Y-62410316D01*
X78212993Y-62404504D01*
X78190471Y-62396446D01*
X78168847Y-62386218D01*
X78148330Y-62373921D01*
X78129117Y-62359671D01*
X78111393Y-62343607D01*
X78095329Y-62325883D01*
X78081079Y-62306670D01*
X78068782Y-62286153D01*
X78058554Y-62264529D01*
X78050496Y-62242007D01*
X78044684Y-62218803D01*
X78041174Y-62195142D01*
X78040000Y-62171250D01*
X78040000Y-61683750D01*
X78041174Y-61659858D01*
X78044684Y-61636197D01*
X78050496Y-61612993D01*
X78058554Y-61590471D01*
X78068782Y-61568847D01*
X78081079Y-61548330D01*
X78095329Y-61529117D01*
X78111393Y-61511393D01*
X78129117Y-61495329D01*
X78148330Y-61481079D01*
X78168847Y-61468782D01*
X78190471Y-61458554D01*
X78212993Y-61450496D01*
X78236197Y-61444684D01*
X78259858Y-61441174D01*
X78283750Y-61440000D01*
X79196250Y-61440000D01*
X79220142Y-61441174D01*
X79220142Y-61441174D01*
G37*
D17*
X78740000Y-61927500D03*
D16*
G36*
X65702642Y-58991174D02*
G01*
X65726303Y-58994684D01*
X65749507Y-59000496D01*
X65772029Y-59008554D01*
X65793653Y-59018782D01*
X65814170Y-59031079D01*
X65833383Y-59045329D01*
X65851107Y-59061393D01*
X65867171Y-59079117D01*
X65881421Y-59098330D01*
X65893718Y-59118847D01*
X65903946Y-59140471D01*
X65912004Y-59162993D01*
X65917816Y-59186197D01*
X65921326Y-59209858D01*
X65922500Y-59233750D01*
X65922500Y-60146250D01*
X65921326Y-60170142D01*
X65917816Y-60193803D01*
X65912004Y-60217007D01*
X65903946Y-60239529D01*
X65893718Y-60261153D01*
X65881421Y-60281670D01*
X65867171Y-60300883D01*
X65851107Y-60318607D01*
X65833383Y-60334671D01*
X65814170Y-60348921D01*
X65793653Y-60361218D01*
X65772029Y-60371446D01*
X65749507Y-60379504D01*
X65726303Y-60385316D01*
X65702642Y-60388826D01*
X65678750Y-60390000D01*
X65191250Y-60390000D01*
X65167358Y-60388826D01*
X65143697Y-60385316D01*
X65120493Y-60379504D01*
X65097971Y-60371446D01*
X65076347Y-60361218D01*
X65055830Y-60348921D01*
X65036617Y-60334671D01*
X65018893Y-60318607D01*
X65002829Y-60300883D01*
X64988579Y-60281670D01*
X64976282Y-60261153D01*
X64966054Y-60239529D01*
X64957996Y-60217007D01*
X64952184Y-60193803D01*
X64948674Y-60170142D01*
X64947500Y-60146250D01*
X64947500Y-59233750D01*
X64948674Y-59209858D01*
X64952184Y-59186197D01*
X64957996Y-59162993D01*
X64966054Y-59140471D01*
X64976282Y-59118847D01*
X64988579Y-59098330D01*
X65002829Y-59079117D01*
X65018893Y-59061393D01*
X65036617Y-59045329D01*
X65055830Y-59031079D01*
X65076347Y-59018782D01*
X65097971Y-59008554D01*
X65120493Y-59000496D01*
X65143697Y-58994684D01*
X65167358Y-58991174D01*
X65191250Y-58990000D01*
X65678750Y-58990000D01*
X65702642Y-58991174D01*
X65702642Y-58991174D01*
G37*
D17*
X65435000Y-59690000D03*
D16*
G36*
X67577642Y-58991174D02*
G01*
X67601303Y-58994684D01*
X67624507Y-59000496D01*
X67647029Y-59008554D01*
X67668653Y-59018782D01*
X67689170Y-59031079D01*
X67708383Y-59045329D01*
X67726107Y-59061393D01*
X67742171Y-59079117D01*
X67756421Y-59098330D01*
X67768718Y-59118847D01*
X67778946Y-59140471D01*
X67787004Y-59162993D01*
X67792816Y-59186197D01*
X67796326Y-59209858D01*
X67797500Y-59233750D01*
X67797500Y-60146250D01*
X67796326Y-60170142D01*
X67792816Y-60193803D01*
X67787004Y-60217007D01*
X67778946Y-60239529D01*
X67768718Y-60261153D01*
X67756421Y-60281670D01*
X67742171Y-60300883D01*
X67726107Y-60318607D01*
X67708383Y-60334671D01*
X67689170Y-60348921D01*
X67668653Y-60361218D01*
X67647029Y-60371446D01*
X67624507Y-60379504D01*
X67601303Y-60385316D01*
X67577642Y-60388826D01*
X67553750Y-60390000D01*
X67066250Y-60390000D01*
X67042358Y-60388826D01*
X67018697Y-60385316D01*
X66995493Y-60379504D01*
X66972971Y-60371446D01*
X66951347Y-60361218D01*
X66930830Y-60348921D01*
X66911617Y-60334671D01*
X66893893Y-60318607D01*
X66877829Y-60300883D01*
X66863579Y-60281670D01*
X66851282Y-60261153D01*
X66841054Y-60239529D01*
X66832996Y-60217007D01*
X66827184Y-60193803D01*
X66823674Y-60170142D01*
X66822500Y-60146250D01*
X66822500Y-59233750D01*
X66823674Y-59209858D01*
X66827184Y-59186197D01*
X66832996Y-59162993D01*
X66841054Y-59140471D01*
X66851282Y-59118847D01*
X66863579Y-59098330D01*
X66877829Y-59079117D01*
X66893893Y-59061393D01*
X66911617Y-59045329D01*
X66930830Y-59031079D01*
X66951347Y-59018782D01*
X66972971Y-59008554D01*
X66995493Y-59000496D01*
X67018697Y-58994684D01*
X67042358Y-58991174D01*
X67066250Y-58990000D01*
X67553750Y-58990000D01*
X67577642Y-58991174D01*
X67577642Y-58991174D01*
G37*
D17*
X67310000Y-59690000D03*
D16*
G36*
X60805142Y-35708674D02*
G01*
X60828803Y-35712184D01*
X60852007Y-35717996D01*
X60874529Y-35726054D01*
X60896153Y-35736282D01*
X60916670Y-35748579D01*
X60935883Y-35762829D01*
X60953607Y-35778893D01*
X60969671Y-35796617D01*
X60983921Y-35815830D01*
X60996218Y-35836347D01*
X61006446Y-35857971D01*
X61014504Y-35880493D01*
X61020316Y-35903697D01*
X61023826Y-35927358D01*
X61025000Y-35951250D01*
X61025000Y-36438750D01*
X61023826Y-36462642D01*
X61020316Y-36486303D01*
X61014504Y-36509507D01*
X61006446Y-36532029D01*
X60996218Y-36553653D01*
X60983921Y-36574170D01*
X60969671Y-36593383D01*
X60953607Y-36611107D01*
X60935883Y-36627171D01*
X60916670Y-36641421D01*
X60896153Y-36653718D01*
X60874529Y-36663946D01*
X60852007Y-36672004D01*
X60828803Y-36677816D01*
X60805142Y-36681326D01*
X60781250Y-36682500D01*
X59868750Y-36682500D01*
X59844858Y-36681326D01*
X59821197Y-36677816D01*
X59797993Y-36672004D01*
X59775471Y-36663946D01*
X59753847Y-36653718D01*
X59733330Y-36641421D01*
X59714117Y-36627171D01*
X59696393Y-36611107D01*
X59680329Y-36593383D01*
X59666079Y-36574170D01*
X59653782Y-36553653D01*
X59643554Y-36532029D01*
X59635496Y-36509507D01*
X59629684Y-36486303D01*
X59626174Y-36462642D01*
X59625000Y-36438750D01*
X59625000Y-35951250D01*
X59626174Y-35927358D01*
X59629684Y-35903697D01*
X59635496Y-35880493D01*
X59643554Y-35857971D01*
X59653782Y-35836347D01*
X59666079Y-35815830D01*
X59680329Y-35796617D01*
X59696393Y-35778893D01*
X59714117Y-35762829D01*
X59733330Y-35748579D01*
X59753847Y-35736282D01*
X59775471Y-35726054D01*
X59797993Y-35717996D01*
X59821197Y-35712184D01*
X59844858Y-35708674D01*
X59868750Y-35707500D01*
X60781250Y-35707500D01*
X60805142Y-35708674D01*
X60805142Y-35708674D01*
G37*
D17*
X60325000Y-36195000D03*
D16*
G36*
X60805142Y-33833674D02*
G01*
X60828803Y-33837184D01*
X60852007Y-33842996D01*
X60874529Y-33851054D01*
X60896153Y-33861282D01*
X60916670Y-33873579D01*
X60935883Y-33887829D01*
X60953607Y-33903893D01*
X60969671Y-33921617D01*
X60983921Y-33940830D01*
X60996218Y-33961347D01*
X61006446Y-33982971D01*
X61014504Y-34005493D01*
X61020316Y-34028697D01*
X61023826Y-34052358D01*
X61025000Y-34076250D01*
X61025000Y-34563750D01*
X61023826Y-34587642D01*
X61020316Y-34611303D01*
X61014504Y-34634507D01*
X61006446Y-34657029D01*
X60996218Y-34678653D01*
X60983921Y-34699170D01*
X60969671Y-34718383D01*
X60953607Y-34736107D01*
X60935883Y-34752171D01*
X60916670Y-34766421D01*
X60896153Y-34778718D01*
X60874529Y-34788946D01*
X60852007Y-34797004D01*
X60828803Y-34802816D01*
X60805142Y-34806326D01*
X60781250Y-34807500D01*
X59868750Y-34807500D01*
X59844858Y-34806326D01*
X59821197Y-34802816D01*
X59797993Y-34797004D01*
X59775471Y-34788946D01*
X59753847Y-34778718D01*
X59733330Y-34766421D01*
X59714117Y-34752171D01*
X59696393Y-34736107D01*
X59680329Y-34718383D01*
X59666079Y-34699170D01*
X59653782Y-34678653D01*
X59643554Y-34657029D01*
X59635496Y-34634507D01*
X59629684Y-34611303D01*
X59626174Y-34587642D01*
X59625000Y-34563750D01*
X59625000Y-34076250D01*
X59626174Y-34052358D01*
X59629684Y-34028697D01*
X59635496Y-34005493D01*
X59643554Y-33982971D01*
X59653782Y-33961347D01*
X59666079Y-33940830D01*
X59680329Y-33921617D01*
X59696393Y-33903893D01*
X59714117Y-33887829D01*
X59733330Y-33873579D01*
X59753847Y-33861282D01*
X59775471Y-33851054D01*
X59797993Y-33842996D01*
X59821197Y-33837184D01*
X59844858Y-33833674D01*
X59868750Y-33832500D01*
X60781250Y-33832500D01*
X60805142Y-33833674D01*
X60805142Y-33833674D01*
G37*
D17*
X60325000Y-34320000D03*
D16*
G36*
X60805142Y-53488674D02*
G01*
X60828803Y-53492184D01*
X60852007Y-53497996D01*
X60874529Y-53506054D01*
X60896153Y-53516282D01*
X60916670Y-53528579D01*
X60935883Y-53542829D01*
X60953607Y-53558893D01*
X60969671Y-53576617D01*
X60983921Y-53595830D01*
X60996218Y-53616347D01*
X61006446Y-53637971D01*
X61014504Y-53660493D01*
X61020316Y-53683697D01*
X61023826Y-53707358D01*
X61025000Y-53731250D01*
X61025000Y-54218750D01*
X61023826Y-54242642D01*
X61020316Y-54266303D01*
X61014504Y-54289507D01*
X61006446Y-54312029D01*
X60996218Y-54333653D01*
X60983921Y-54354170D01*
X60969671Y-54373383D01*
X60953607Y-54391107D01*
X60935883Y-54407171D01*
X60916670Y-54421421D01*
X60896153Y-54433718D01*
X60874529Y-54443946D01*
X60852007Y-54452004D01*
X60828803Y-54457816D01*
X60805142Y-54461326D01*
X60781250Y-54462500D01*
X59868750Y-54462500D01*
X59844858Y-54461326D01*
X59821197Y-54457816D01*
X59797993Y-54452004D01*
X59775471Y-54443946D01*
X59753847Y-54433718D01*
X59733330Y-54421421D01*
X59714117Y-54407171D01*
X59696393Y-54391107D01*
X59680329Y-54373383D01*
X59666079Y-54354170D01*
X59653782Y-54333653D01*
X59643554Y-54312029D01*
X59635496Y-54289507D01*
X59629684Y-54266303D01*
X59626174Y-54242642D01*
X59625000Y-54218750D01*
X59625000Y-53731250D01*
X59626174Y-53707358D01*
X59629684Y-53683697D01*
X59635496Y-53660493D01*
X59643554Y-53637971D01*
X59653782Y-53616347D01*
X59666079Y-53595830D01*
X59680329Y-53576617D01*
X59696393Y-53558893D01*
X59714117Y-53542829D01*
X59733330Y-53528579D01*
X59753847Y-53516282D01*
X59775471Y-53506054D01*
X59797993Y-53497996D01*
X59821197Y-53492184D01*
X59844858Y-53488674D01*
X59868750Y-53487500D01*
X60781250Y-53487500D01*
X60805142Y-53488674D01*
X60805142Y-53488674D01*
G37*
D17*
X60325000Y-53975000D03*
D16*
G36*
X60805142Y-51613674D02*
G01*
X60828803Y-51617184D01*
X60852007Y-51622996D01*
X60874529Y-51631054D01*
X60896153Y-51641282D01*
X60916670Y-51653579D01*
X60935883Y-51667829D01*
X60953607Y-51683893D01*
X60969671Y-51701617D01*
X60983921Y-51720830D01*
X60996218Y-51741347D01*
X61006446Y-51762971D01*
X61014504Y-51785493D01*
X61020316Y-51808697D01*
X61023826Y-51832358D01*
X61025000Y-51856250D01*
X61025000Y-52343750D01*
X61023826Y-52367642D01*
X61020316Y-52391303D01*
X61014504Y-52414507D01*
X61006446Y-52437029D01*
X60996218Y-52458653D01*
X60983921Y-52479170D01*
X60969671Y-52498383D01*
X60953607Y-52516107D01*
X60935883Y-52532171D01*
X60916670Y-52546421D01*
X60896153Y-52558718D01*
X60874529Y-52568946D01*
X60852007Y-52577004D01*
X60828803Y-52582816D01*
X60805142Y-52586326D01*
X60781250Y-52587500D01*
X59868750Y-52587500D01*
X59844858Y-52586326D01*
X59821197Y-52582816D01*
X59797993Y-52577004D01*
X59775471Y-52568946D01*
X59753847Y-52558718D01*
X59733330Y-52546421D01*
X59714117Y-52532171D01*
X59696393Y-52516107D01*
X59680329Y-52498383D01*
X59666079Y-52479170D01*
X59653782Y-52458653D01*
X59643554Y-52437029D01*
X59635496Y-52414507D01*
X59629684Y-52391303D01*
X59626174Y-52367642D01*
X59625000Y-52343750D01*
X59625000Y-51856250D01*
X59626174Y-51832358D01*
X59629684Y-51808697D01*
X59635496Y-51785493D01*
X59643554Y-51762971D01*
X59653782Y-51741347D01*
X59666079Y-51720830D01*
X59680329Y-51701617D01*
X59696393Y-51683893D01*
X59714117Y-51667829D01*
X59733330Y-51653579D01*
X59753847Y-51641282D01*
X59775471Y-51631054D01*
X59797993Y-51622996D01*
X59821197Y-51617184D01*
X59844858Y-51613674D01*
X59868750Y-51612500D01*
X60781250Y-51612500D01*
X60805142Y-51613674D01*
X60805142Y-51613674D01*
G37*
D17*
X60325000Y-52100000D03*
D16*
G36*
X79220142Y-36041174D02*
G01*
X79243803Y-36044684D01*
X79267007Y-36050496D01*
X79289529Y-36058554D01*
X79311153Y-36068782D01*
X79331670Y-36081079D01*
X79350883Y-36095329D01*
X79368607Y-36111393D01*
X79384671Y-36129117D01*
X79398921Y-36148330D01*
X79411218Y-36168847D01*
X79421446Y-36190471D01*
X79429504Y-36212993D01*
X79435316Y-36236197D01*
X79438826Y-36259858D01*
X79440000Y-36283750D01*
X79440000Y-36771250D01*
X79438826Y-36795142D01*
X79435316Y-36818803D01*
X79429504Y-36842007D01*
X79421446Y-36864529D01*
X79411218Y-36886153D01*
X79398921Y-36906670D01*
X79384671Y-36925883D01*
X79368607Y-36943607D01*
X79350883Y-36959671D01*
X79331670Y-36973921D01*
X79311153Y-36986218D01*
X79289529Y-36996446D01*
X79267007Y-37004504D01*
X79243803Y-37010316D01*
X79220142Y-37013826D01*
X79196250Y-37015000D01*
X78283750Y-37015000D01*
X78259858Y-37013826D01*
X78236197Y-37010316D01*
X78212993Y-37004504D01*
X78190471Y-36996446D01*
X78168847Y-36986218D01*
X78148330Y-36973921D01*
X78129117Y-36959671D01*
X78111393Y-36943607D01*
X78095329Y-36925883D01*
X78081079Y-36906670D01*
X78068782Y-36886153D01*
X78058554Y-36864529D01*
X78050496Y-36842007D01*
X78044684Y-36818803D01*
X78041174Y-36795142D01*
X78040000Y-36771250D01*
X78040000Y-36283750D01*
X78041174Y-36259858D01*
X78044684Y-36236197D01*
X78050496Y-36212993D01*
X78058554Y-36190471D01*
X78068782Y-36168847D01*
X78081079Y-36148330D01*
X78095329Y-36129117D01*
X78111393Y-36111393D01*
X78129117Y-36095329D01*
X78148330Y-36081079D01*
X78168847Y-36068782D01*
X78190471Y-36058554D01*
X78212993Y-36050496D01*
X78236197Y-36044684D01*
X78259858Y-36041174D01*
X78283750Y-36040000D01*
X79196250Y-36040000D01*
X79220142Y-36041174D01*
X79220142Y-36041174D01*
G37*
D17*
X78740000Y-36527500D03*
D16*
G36*
X79220142Y-37916174D02*
G01*
X79243803Y-37919684D01*
X79267007Y-37925496D01*
X79289529Y-37933554D01*
X79311153Y-37943782D01*
X79331670Y-37956079D01*
X79350883Y-37970329D01*
X79368607Y-37986393D01*
X79384671Y-38004117D01*
X79398921Y-38023330D01*
X79411218Y-38043847D01*
X79421446Y-38065471D01*
X79429504Y-38087993D01*
X79435316Y-38111197D01*
X79438826Y-38134858D01*
X79440000Y-38158750D01*
X79440000Y-38646250D01*
X79438826Y-38670142D01*
X79435316Y-38693803D01*
X79429504Y-38717007D01*
X79421446Y-38739529D01*
X79411218Y-38761153D01*
X79398921Y-38781670D01*
X79384671Y-38800883D01*
X79368607Y-38818607D01*
X79350883Y-38834671D01*
X79331670Y-38848921D01*
X79311153Y-38861218D01*
X79289529Y-38871446D01*
X79267007Y-38879504D01*
X79243803Y-38885316D01*
X79220142Y-38888826D01*
X79196250Y-38890000D01*
X78283750Y-38890000D01*
X78259858Y-38888826D01*
X78236197Y-38885316D01*
X78212993Y-38879504D01*
X78190471Y-38871446D01*
X78168847Y-38861218D01*
X78148330Y-38848921D01*
X78129117Y-38834671D01*
X78111393Y-38818607D01*
X78095329Y-38800883D01*
X78081079Y-38781670D01*
X78068782Y-38761153D01*
X78058554Y-38739529D01*
X78050496Y-38717007D01*
X78044684Y-38693803D01*
X78041174Y-38670142D01*
X78040000Y-38646250D01*
X78040000Y-38158750D01*
X78041174Y-38134858D01*
X78044684Y-38111197D01*
X78050496Y-38087993D01*
X78058554Y-38065471D01*
X78068782Y-38043847D01*
X78081079Y-38023330D01*
X78095329Y-38004117D01*
X78111393Y-37986393D01*
X78129117Y-37970329D01*
X78148330Y-37956079D01*
X78168847Y-37943782D01*
X78190471Y-37933554D01*
X78212993Y-37925496D01*
X78236197Y-37919684D01*
X78259858Y-37916174D01*
X78283750Y-37915000D01*
X79196250Y-37915000D01*
X79220142Y-37916174D01*
X79220142Y-37916174D01*
G37*
D17*
X78740000Y-38402500D03*
D18*
X60960000Y-61595000D03*
X58420000Y-61595000D03*
X55880000Y-61595000D03*
D16*
G36*
X87475142Y-49678674D02*
G01*
X87498803Y-49682184D01*
X87522007Y-49687996D01*
X87544529Y-49696054D01*
X87566153Y-49706282D01*
X87586670Y-49718579D01*
X87605883Y-49732829D01*
X87623607Y-49748893D01*
X87639671Y-49766617D01*
X87653921Y-49785830D01*
X87666218Y-49806347D01*
X87676446Y-49827971D01*
X87684504Y-49850493D01*
X87690316Y-49873697D01*
X87693826Y-49897358D01*
X87695000Y-49921250D01*
X87695000Y-50408750D01*
X87693826Y-50432642D01*
X87690316Y-50456303D01*
X87684504Y-50479507D01*
X87676446Y-50502029D01*
X87666218Y-50523653D01*
X87653921Y-50544170D01*
X87639671Y-50563383D01*
X87623607Y-50581107D01*
X87605883Y-50597171D01*
X87586670Y-50611421D01*
X87566153Y-50623718D01*
X87544529Y-50633946D01*
X87522007Y-50642004D01*
X87498803Y-50647816D01*
X87475142Y-50651326D01*
X87451250Y-50652500D01*
X86538750Y-50652500D01*
X86514858Y-50651326D01*
X86491197Y-50647816D01*
X86467993Y-50642004D01*
X86445471Y-50633946D01*
X86423847Y-50623718D01*
X86403330Y-50611421D01*
X86384117Y-50597171D01*
X86366393Y-50581107D01*
X86350329Y-50563383D01*
X86336079Y-50544170D01*
X86323782Y-50523653D01*
X86313554Y-50502029D01*
X86305496Y-50479507D01*
X86299684Y-50456303D01*
X86296174Y-50432642D01*
X86295000Y-50408750D01*
X86295000Y-49921250D01*
X86296174Y-49897358D01*
X86299684Y-49873697D01*
X86305496Y-49850493D01*
X86313554Y-49827971D01*
X86323782Y-49806347D01*
X86336079Y-49785830D01*
X86350329Y-49766617D01*
X86366393Y-49748893D01*
X86384117Y-49732829D01*
X86403330Y-49718579D01*
X86423847Y-49706282D01*
X86445471Y-49696054D01*
X86467993Y-49687996D01*
X86491197Y-49682184D01*
X86514858Y-49678674D01*
X86538750Y-49677500D01*
X87451250Y-49677500D01*
X87475142Y-49678674D01*
X87475142Y-49678674D01*
G37*
D17*
X86995000Y-50165000D03*
D16*
G36*
X87475142Y-51553674D02*
G01*
X87498803Y-51557184D01*
X87522007Y-51562996D01*
X87544529Y-51571054D01*
X87566153Y-51581282D01*
X87586670Y-51593579D01*
X87605883Y-51607829D01*
X87623607Y-51623893D01*
X87639671Y-51641617D01*
X87653921Y-51660830D01*
X87666218Y-51681347D01*
X87676446Y-51702971D01*
X87684504Y-51725493D01*
X87690316Y-51748697D01*
X87693826Y-51772358D01*
X87695000Y-51796250D01*
X87695000Y-52283750D01*
X87693826Y-52307642D01*
X87690316Y-52331303D01*
X87684504Y-52354507D01*
X87676446Y-52377029D01*
X87666218Y-52398653D01*
X87653921Y-52419170D01*
X87639671Y-52438383D01*
X87623607Y-52456107D01*
X87605883Y-52472171D01*
X87586670Y-52486421D01*
X87566153Y-52498718D01*
X87544529Y-52508946D01*
X87522007Y-52517004D01*
X87498803Y-52522816D01*
X87475142Y-52526326D01*
X87451250Y-52527500D01*
X86538750Y-52527500D01*
X86514858Y-52526326D01*
X86491197Y-52522816D01*
X86467993Y-52517004D01*
X86445471Y-52508946D01*
X86423847Y-52498718D01*
X86403330Y-52486421D01*
X86384117Y-52472171D01*
X86366393Y-52456107D01*
X86350329Y-52438383D01*
X86336079Y-52419170D01*
X86323782Y-52398653D01*
X86313554Y-52377029D01*
X86305496Y-52354507D01*
X86299684Y-52331303D01*
X86296174Y-52307642D01*
X86295000Y-52283750D01*
X86295000Y-51796250D01*
X86296174Y-51772358D01*
X86299684Y-51748697D01*
X86305496Y-51725493D01*
X86313554Y-51702971D01*
X86323782Y-51681347D01*
X86336079Y-51660830D01*
X86350329Y-51641617D01*
X86366393Y-51623893D01*
X86384117Y-51607829D01*
X86403330Y-51593579D01*
X86423847Y-51581282D01*
X86445471Y-51571054D01*
X86467993Y-51562996D01*
X86491197Y-51557184D01*
X86514858Y-51553674D01*
X86538750Y-51552500D01*
X87451250Y-51552500D01*
X87475142Y-51553674D01*
X87475142Y-51553674D01*
G37*
D17*
X86995000Y-52040000D03*
D16*
G36*
X56995142Y-40123674D02*
G01*
X57018803Y-40127184D01*
X57042007Y-40132996D01*
X57064529Y-40141054D01*
X57086153Y-40151282D01*
X57106670Y-40163579D01*
X57125883Y-40177829D01*
X57143607Y-40193893D01*
X57159671Y-40211617D01*
X57173921Y-40230830D01*
X57186218Y-40251347D01*
X57196446Y-40272971D01*
X57204504Y-40295493D01*
X57210316Y-40318697D01*
X57213826Y-40342358D01*
X57215000Y-40366250D01*
X57215000Y-40853750D01*
X57213826Y-40877642D01*
X57210316Y-40901303D01*
X57204504Y-40924507D01*
X57196446Y-40947029D01*
X57186218Y-40968653D01*
X57173921Y-40989170D01*
X57159671Y-41008383D01*
X57143607Y-41026107D01*
X57125883Y-41042171D01*
X57106670Y-41056421D01*
X57086153Y-41068718D01*
X57064529Y-41078946D01*
X57042007Y-41087004D01*
X57018803Y-41092816D01*
X56995142Y-41096326D01*
X56971250Y-41097500D01*
X56058750Y-41097500D01*
X56034858Y-41096326D01*
X56011197Y-41092816D01*
X55987993Y-41087004D01*
X55965471Y-41078946D01*
X55943847Y-41068718D01*
X55923330Y-41056421D01*
X55904117Y-41042171D01*
X55886393Y-41026107D01*
X55870329Y-41008383D01*
X55856079Y-40989170D01*
X55843782Y-40968653D01*
X55833554Y-40947029D01*
X55825496Y-40924507D01*
X55819684Y-40901303D01*
X55816174Y-40877642D01*
X55815000Y-40853750D01*
X55815000Y-40366250D01*
X55816174Y-40342358D01*
X55819684Y-40318697D01*
X55825496Y-40295493D01*
X55833554Y-40272971D01*
X55843782Y-40251347D01*
X55856079Y-40230830D01*
X55870329Y-40211617D01*
X55886393Y-40193893D01*
X55904117Y-40177829D01*
X55923330Y-40163579D01*
X55943847Y-40151282D01*
X55965471Y-40141054D01*
X55987993Y-40132996D01*
X56011197Y-40127184D01*
X56034858Y-40123674D01*
X56058750Y-40122500D01*
X56971250Y-40122500D01*
X56995142Y-40123674D01*
X56995142Y-40123674D01*
G37*
D17*
X56515000Y-40610000D03*
D16*
G36*
X56995142Y-38248674D02*
G01*
X57018803Y-38252184D01*
X57042007Y-38257996D01*
X57064529Y-38266054D01*
X57086153Y-38276282D01*
X57106670Y-38288579D01*
X57125883Y-38302829D01*
X57143607Y-38318893D01*
X57159671Y-38336617D01*
X57173921Y-38355830D01*
X57186218Y-38376347D01*
X57196446Y-38397971D01*
X57204504Y-38420493D01*
X57210316Y-38443697D01*
X57213826Y-38467358D01*
X57215000Y-38491250D01*
X57215000Y-38978750D01*
X57213826Y-39002642D01*
X57210316Y-39026303D01*
X57204504Y-39049507D01*
X57196446Y-39072029D01*
X57186218Y-39093653D01*
X57173921Y-39114170D01*
X57159671Y-39133383D01*
X57143607Y-39151107D01*
X57125883Y-39167171D01*
X57106670Y-39181421D01*
X57086153Y-39193718D01*
X57064529Y-39203946D01*
X57042007Y-39212004D01*
X57018803Y-39217816D01*
X56995142Y-39221326D01*
X56971250Y-39222500D01*
X56058750Y-39222500D01*
X56034858Y-39221326D01*
X56011197Y-39217816D01*
X55987993Y-39212004D01*
X55965471Y-39203946D01*
X55943847Y-39193718D01*
X55923330Y-39181421D01*
X55904117Y-39167171D01*
X55886393Y-39151107D01*
X55870329Y-39133383D01*
X55856079Y-39114170D01*
X55843782Y-39093653D01*
X55833554Y-39072029D01*
X55825496Y-39049507D01*
X55819684Y-39026303D01*
X55816174Y-39002642D01*
X55815000Y-38978750D01*
X55815000Y-38491250D01*
X55816174Y-38467358D01*
X55819684Y-38443697D01*
X55825496Y-38420493D01*
X55833554Y-38397971D01*
X55843782Y-38376347D01*
X55856079Y-38355830D01*
X55870329Y-38336617D01*
X55886393Y-38318893D01*
X55904117Y-38302829D01*
X55923330Y-38288579D01*
X55943847Y-38276282D01*
X55965471Y-38266054D01*
X55987993Y-38257996D01*
X56011197Y-38252184D01*
X56034858Y-38248674D01*
X56058750Y-38247500D01*
X56971250Y-38247500D01*
X56995142Y-38248674D01*
X56995142Y-38248674D01*
G37*
D17*
X56515000Y-38735000D03*
D16*
G36*
X70965142Y-50283674D02*
G01*
X70988803Y-50287184D01*
X71012007Y-50292996D01*
X71034529Y-50301054D01*
X71056153Y-50311282D01*
X71076670Y-50323579D01*
X71095883Y-50337829D01*
X71113607Y-50353893D01*
X71129671Y-50371617D01*
X71143921Y-50390830D01*
X71156218Y-50411347D01*
X71166446Y-50432971D01*
X71174504Y-50455493D01*
X71180316Y-50478697D01*
X71183826Y-50502358D01*
X71185000Y-50526250D01*
X71185000Y-51013750D01*
X71183826Y-51037642D01*
X71180316Y-51061303D01*
X71174504Y-51084507D01*
X71166446Y-51107029D01*
X71156218Y-51128653D01*
X71143921Y-51149170D01*
X71129671Y-51168383D01*
X71113607Y-51186107D01*
X71095883Y-51202171D01*
X71076670Y-51216421D01*
X71056153Y-51228718D01*
X71034529Y-51238946D01*
X71012007Y-51247004D01*
X70988803Y-51252816D01*
X70965142Y-51256326D01*
X70941250Y-51257500D01*
X70028750Y-51257500D01*
X70004858Y-51256326D01*
X69981197Y-51252816D01*
X69957993Y-51247004D01*
X69935471Y-51238946D01*
X69913847Y-51228718D01*
X69893330Y-51216421D01*
X69874117Y-51202171D01*
X69856393Y-51186107D01*
X69840329Y-51168383D01*
X69826079Y-51149170D01*
X69813782Y-51128653D01*
X69803554Y-51107029D01*
X69795496Y-51084507D01*
X69789684Y-51061303D01*
X69786174Y-51037642D01*
X69785000Y-51013750D01*
X69785000Y-50526250D01*
X69786174Y-50502358D01*
X69789684Y-50478697D01*
X69795496Y-50455493D01*
X69803554Y-50432971D01*
X69813782Y-50411347D01*
X69826079Y-50390830D01*
X69840329Y-50371617D01*
X69856393Y-50353893D01*
X69874117Y-50337829D01*
X69893330Y-50323579D01*
X69913847Y-50311282D01*
X69935471Y-50301054D01*
X69957993Y-50292996D01*
X69981197Y-50287184D01*
X70004858Y-50283674D01*
X70028750Y-50282500D01*
X70941250Y-50282500D01*
X70965142Y-50283674D01*
X70965142Y-50283674D01*
G37*
D17*
X70485000Y-50770000D03*
D16*
G36*
X70965142Y-48408674D02*
G01*
X70988803Y-48412184D01*
X71012007Y-48417996D01*
X71034529Y-48426054D01*
X71056153Y-48436282D01*
X71076670Y-48448579D01*
X71095883Y-48462829D01*
X71113607Y-48478893D01*
X71129671Y-48496617D01*
X71143921Y-48515830D01*
X71156218Y-48536347D01*
X71166446Y-48557971D01*
X71174504Y-48580493D01*
X71180316Y-48603697D01*
X71183826Y-48627358D01*
X71185000Y-48651250D01*
X71185000Y-49138750D01*
X71183826Y-49162642D01*
X71180316Y-49186303D01*
X71174504Y-49209507D01*
X71166446Y-49232029D01*
X71156218Y-49253653D01*
X71143921Y-49274170D01*
X71129671Y-49293383D01*
X71113607Y-49311107D01*
X71095883Y-49327171D01*
X71076670Y-49341421D01*
X71056153Y-49353718D01*
X71034529Y-49363946D01*
X71012007Y-49372004D01*
X70988803Y-49377816D01*
X70965142Y-49381326D01*
X70941250Y-49382500D01*
X70028750Y-49382500D01*
X70004858Y-49381326D01*
X69981197Y-49377816D01*
X69957993Y-49372004D01*
X69935471Y-49363946D01*
X69913847Y-49353718D01*
X69893330Y-49341421D01*
X69874117Y-49327171D01*
X69856393Y-49311107D01*
X69840329Y-49293383D01*
X69826079Y-49274170D01*
X69813782Y-49253653D01*
X69803554Y-49232029D01*
X69795496Y-49209507D01*
X69789684Y-49186303D01*
X69786174Y-49162642D01*
X69785000Y-49138750D01*
X69785000Y-48651250D01*
X69786174Y-48627358D01*
X69789684Y-48603697D01*
X69795496Y-48580493D01*
X69803554Y-48557971D01*
X69813782Y-48536347D01*
X69826079Y-48515830D01*
X69840329Y-48496617D01*
X69856393Y-48478893D01*
X69874117Y-48462829D01*
X69893330Y-48448579D01*
X69913847Y-48436282D01*
X69935471Y-48426054D01*
X69957993Y-48417996D01*
X69981197Y-48412184D01*
X70004858Y-48408674D01*
X70028750Y-48407500D01*
X70941250Y-48407500D01*
X70965142Y-48408674D01*
X70965142Y-48408674D01*
G37*
D17*
X70485000Y-48895000D03*
D16*
G36*
X60805142Y-38248674D02*
G01*
X60828803Y-38252184D01*
X60852007Y-38257996D01*
X60874529Y-38266054D01*
X60896153Y-38276282D01*
X60916670Y-38288579D01*
X60935883Y-38302829D01*
X60953607Y-38318893D01*
X60969671Y-38336617D01*
X60983921Y-38355830D01*
X60996218Y-38376347D01*
X61006446Y-38397971D01*
X61014504Y-38420493D01*
X61020316Y-38443697D01*
X61023826Y-38467358D01*
X61025000Y-38491250D01*
X61025000Y-38978750D01*
X61023826Y-39002642D01*
X61020316Y-39026303D01*
X61014504Y-39049507D01*
X61006446Y-39072029D01*
X60996218Y-39093653D01*
X60983921Y-39114170D01*
X60969671Y-39133383D01*
X60953607Y-39151107D01*
X60935883Y-39167171D01*
X60916670Y-39181421D01*
X60896153Y-39193718D01*
X60874529Y-39203946D01*
X60852007Y-39212004D01*
X60828803Y-39217816D01*
X60805142Y-39221326D01*
X60781250Y-39222500D01*
X59868750Y-39222500D01*
X59844858Y-39221326D01*
X59821197Y-39217816D01*
X59797993Y-39212004D01*
X59775471Y-39203946D01*
X59753847Y-39193718D01*
X59733330Y-39181421D01*
X59714117Y-39167171D01*
X59696393Y-39151107D01*
X59680329Y-39133383D01*
X59666079Y-39114170D01*
X59653782Y-39093653D01*
X59643554Y-39072029D01*
X59635496Y-39049507D01*
X59629684Y-39026303D01*
X59626174Y-39002642D01*
X59625000Y-38978750D01*
X59625000Y-38491250D01*
X59626174Y-38467358D01*
X59629684Y-38443697D01*
X59635496Y-38420493D01*
X59643554Y-38397971D01*
X59653782Y-38376347D01*
X59666079Y-38355830D01*
X59680329Y-38336617D01*
X59696393Y-38318893D01*
X59714117Y-38302829D01*
X59733330Y-38288579D01*
X59753847Y-38276282D01*
X59775471Y-38266054D01*
X59797993Y-38257996D01*
X59821197Y-38252184D01*
X59844858Y-38248674D01*
X59868750Y-38247500D01*
X60781250Y-38247500D01*
X60805142Y-38248674D01*
X60805142Y-38248674D01*
G37*
D17*
X60325000Y-38735000D03*
D16*
G36*
X60805142Y-40123674D02*
G01*
X60828803Y-40127184D01*
X60852007Y-40132996D01*
X60874529Y-40141054D01*
X60896153Y-40151282D01*
X60916670Y-40163579D01*
X60935883Y-40177829D01*
X60953607Y-40193893D01*
X60969671Y-40211617D01*
X60983921Y-40230830D01*
X60996218Y-40251347D01*
X61006446Y-40272971D01*
X61014504Y-40295493D01*
X61020316Y-40318697D01*
X61023826Y-40342358D01*
X61025000Y-40366250D01*
X61025000Y-40853750D01*
X61023826Y-40877642D01*
X61020316Y-40901303D01*
X61014504Y-40924507D01*
X61006446Y-40947029D01*
X60996218Y-40968653D01*
X60983921Y-40989170D01*
X60969671Y-41008383D01*
X60953607Y-41026107D01*
X60935883Y-41042171D01*
X60916670Y-41056421D01*
X60896153Y-41068718D01*
X60874529Y-41078946D01*
X60852007Y-41087004D01*
X60828803Y-41092816D01*
X60805142Y-41096326D01*
X60781250Y-41097500D01*
X59868750Y-41097500D01*
X59844858Y-41096326D01*
X59821197Y-41092816D01*
X59797993Y-41087004D01*
X59775471Y-41078946D01*
X59753847Y-41068718D01*
X59733330Y-41056421D01*
X59714117Y-41042171D01*
X59696393Y-41026107D01*
X59680329Y-41008383D01*
X59666079Y-40989170D01*
X59653782Y-40968653D01*
X59643554Y-40947029D01*
X59635496Y-40924507D01*
X59629684Y-40901303D01*
X59626174Y-40877642D01*
X59625000Y-40853750D01*
X59625000Y-40366250D01*
X59626174Y-40342358D01*
X59629684Y-40318697D01*
X59635496Y-40295493D01*
X59643554Y-40272971D01*
X59653782Y-40251347D01*
X59666079Y-40230830D01*
X59680329Y-40211617D01*
X59696393Y-40193893D01*
X59714117Y-40177829D01*
X59733330Y-40163579D01*
X59753847Y-40151282D01*
X59775471Y-40141054D01*
X59797993Y-40132996D01*
X59821197Y-40127184D01*
X59844858Y-40123674D01*
X59868750Y-40122500D01*
X60781250Y-40122500D01*
X60805142Y-40123674D01*
X60805142Y-40123674D01*
G37*
D17*
X60325000Y-40610000D03*
D16*
G36*
X74775142Y-48408674D02*
G01*
X74798803Y-48412184D01*
X74822007Y-48417996D01*
X74844529Y-48426054D01*
X74866153Y-48436282D01*
X74886670Y-48448579D01*
X74905883Y-48462829D01*
X74923607Y-48478893D01*
X74939671Y-48496617D01*
X74953921Y-48515830D01*
X74966218Y-48536347D01*
X74976446Y-48557971D01*
X74984504Y-48580493D01*
X74990316Y-48603697D01*
X74993826Y-48627358D01*
X74995000Y-48651250D01*
X74995000Y-49138750D01*
X74993826Y-49162642D01*
X74990316Y-49186303D01*
X74984504Y-49209507D01*
X74976446Y-49232029D01*
X74966218Y-49253653D01*
X74953921Y-49274170D01*
X74939671Y-49293383D01*
X74923607Y-49311107D01*
X74905883Y-49327171D01*
X74886670Y-49341421D01*
X74866153Y-49353718D01*
X74844529Y-49363946D01*
X74822007Y-49372004D01*
X74798803Y-49377816D01*
X74775142Y-49381326D01*
X74751250Y-49382500D01*
X73838750Y-49382500D01*
X73814858Y-49381326D01*
X73791197Y-49377816D01*
X73767993Y-49372004D01*
X73745471Y-49363946D01*
X73723847Y-49353718D01*
X73703330Y-49341421D01*
X73684117Y-49327171D01*
X73666393Y-49311107D01*
X73650329Y-49293383D01*
X73636079Y-49274170D01*
X73623782Y-49253653D01*
X73613554Y-49232029D01*
X73605496Y-49209507D01*
X73599684Y-49186303D01*
X73596174Y-49162642D01*
X73595000Y-49138750D01*
X73595000Y-48651250D01*
X73596174Y-48627358D01*
X73599684Y-48603697D01*
X73605496Y-48580493D01*
X73613554Y-48557971D01*
X73623782Y-48536347D01*
X73636079Y-48515830D01*
X73650329Y-48496617D01*
X73666393Y-48478893D01*
X73684117Y-48462829D01*
X73703330Y-48448579D01*
X73723847Y-48436282D01*
X73745471Y-48426054D01*
X73767993Y-48417996D01*
X73791197Y-48412184D01*
X73814858Y-48408674D01*
X73838750Y-48407500D01*
X74751250Y-48407500D01*
X74775142Y-48408674D01*
X74775142Y-48408674D01*
G37*
D17*
X74295000Y-48895000D03*
D16*
G36*
X74775142Y-50283674D02*
G01*
X74798803Y-50287184D01*
X74822007Y-50292996D01*
X74844529Y-50301054D01*
X74866153Y-50311282D01*
X74886670Y-50323579D01*
X74905883Y-50337829D01*
X74923607Y-50353893D01*
X74939671Y-50371617D01*
X74953921Y-50390830D01*
X74966218Y-50411347D01*
X74976446Y-50432971D01*
X74984504Y-50455493D01*
X74990316Y-50478697D01*
X74993826Y-50502358D01*
X74995000Y-50526250D01*
X74995000Y-51013750D01*
X74993826Y-51037642D01*
X74990316Y-51061303D01*
X74984504Y-51084507D01*
X74976446Y-51107029D01*
X74966218Y-51128653D01*
X74953921Y-51149170D01*
X74939671Y-51168383D01*
X74923607Y-51186107D01*
X74905883Y-51202171D01*
X74886670Y-51216421D01*
X74866153Y-51228718D01*
X74844529Y-51238946D01*
X74822007Y-51247004D01*
X74798803Y-51252816D01*
X74775142Y-51256326D01*
X74751250Y-51257500D01*
X73838750Y-51257500D01*
X73814858Y-51256326D01*
X73791197Y-51252816D01*
X73767993Y-51247004D01*
X73745471Y-51238946D01*
X73723847Y-51228718D01*
X73703330Y-51216421D01*
X73684117Y-51202171D01*
X73666393Y-51186107D01*
X73650329Y-51168383D01*
X73636079Y-51149170D01*
X73623782Y-51128653D01*
X73613554Y-51107029D01*
X73605496Y-51084507D01*
X73599684Y-51061303D01*
X73596174Y-51037642D01*
X73595000Y-51013750D01*
X73595000Y-50526250D01*
X73596174Y-50502358D01*
X73599684Y-50478697D01*
X73605496Y-50455493D01*
X73613554Y-50432971D01*
X73623782Y-50411347D01*
X73636079Y-50390830D01*
X73650329Y-50371617D01*
X73666393Y-50353893D01*
X73684117Y-50337829D01*
X73703330Y-50323579D01*
X73723847Y-50311282D01*
X73745471Y-50301054D01*
X73767993Y-50292996D01*
X73791197Y-50287184D01*
X73814858Y-50283674D01*
X73838750Y-50282500D01*
X74751250Y-50282500D01*
X74775142Y-50283674D01*
X74775142Y-50283674D01*
G37*
D17*
X74295000Y-50770000D03*
D16*
G36*
X78585142Y-50283674D02*
G01*
X78608803Y-50287184D01*
X78632007Y-50292996D01*
X78654529Y-50301054D01*
X78676153Y-50311282D01*
X78696670Y-50323579D01*
X78715883Y-50337829D01*
X78733607Y-50353893D01*
X78749671Y-50371617D01*
X78763921Y-50390830D01*
X78776218Y-50411347D01*
X78786446Y-50432971D01*
X78794504Y-50455493D01*
X78800316Y-50478697D01*
X78803826Y-50502358D01*
X78805000Y-50526250D01*
X78805000Y-51013750D01*
X78803826Y-51037642D01*
X78800316Y-51061303D01*
X78794504Y-51084507D01*
X78786446Y-51107029D01*
X78776218Y-51128653D01*
X78763921Y-51149170D01*
X78749671Y-51168383D01*
X78733607Y-51186107D01*
X78715883Y-51202171D01*
X78696670Y-51216421D01*
X78676153Y-51228718D01*
X78654529Y-51238946D01*
X78632007Y-51247004D01*
X78608803Y-51252816D01*
X78585142Y-51256326D01*
X78561250Y-51257500D01*
X77648750Y-51257500D01*
X77624858Y-51256326D01*
X77601197Y-51252816D01*
X77577993Y-51247004D01*
X77555471Y-51238946D01*
X77533847Y-51228718D01*
X77513330Y-51216421D01*
X77494117Y-51202171D01*
X77476393Y-51186107D01*
X77460329Y-51168383D01*
X77446079Y-51149170D01*
X77433782Y-51128653D01*
X77423554Y-51107029D01*
X77415496Y-51084507D01*
X77409684Y-51061303D01*
X77406174Y-51037642D01*
X77405000Y-51013750D01*
X77405000Y-50526250D01*
X77406174Y-50502358D01*
X77409684Y-50478697D01*
X77415496Y-50455493D01*
X77423554Y-50432971D01*
X77433782Y-50411347D01*
X77446079Y-50390830D01*
X77460329Y-50371617D01*
X77476393Y-50353893D01*
X77494117Y-50337829D01*
X77513330Y-50323579D01*
X77533847Y-50311282D01*
X77555471Y-50301054D01*
X77577993Y-50292996D01*
X77601197Y-50287184D01*
X77624858Y-50283674D01*
X77648750Y-50282500D01*
X78561250Y-50282500D01*
X78585142Y-50283674D01*
X78585142Y-50283674D01*
G37*
D17*
X78105000Y-50770000D03*
D16*
G36*
X78585142Y-48408674D02*
G01*
X78608803Y-48412184D01*
X78632007Y-48417996D01*
X78654529Y-48426054D01*
X78676153Y-48436282D01*
X78696670Y-48448579D01*
X78715883Y-48462829D01*
X78733607Y-48478893D01*
X78749671Y-48496617D01*
X78763921Y-48515830D01*
X78776218Y-48536347D01*
X78786446Y-48557971D01*
X78794504Y-48580493D01*
X78800316Y-48603697D01*
X78803826Y-48627358D01*
X78805000Y-48651250D01*
X78805000Y-49138750D01*
X78803826Y-49162642D01*
X78800316Y-49186303D01*
X78794504Y-49209507D01*
X78786446Y-49232029D01*
X78776218Y-49253653D01*
X78763921Y-49274170D01*
X78749671Y-49293383D01*
X78733607Y-49311107D01*
X78715883Y-49327171D01*
X78696670Y-49341421D01*
X78676153Y-49353718D01*
X78654529Y-49363946D01*
X78632007Y-49372004D01*
X78608803Y-49377816D01*
X78585142Y-49381326D01*
X78561250Y-49382500D01*
X77648750Y-49382500D01*
X77624858Y-49381326D01*
X77601197Y-49377816D01*
X77577993Y-49372004D01*
X77555471Y-49363946D01*
X77533847Y-49353718D01*
X77513330Y-49341421D01*
X77494117Y-49327171D01*
X77476393Y-49311107D01*
X77460329Y-49293383D01*
X77446079Y-49274170D01*
X77433782Y-49253653D01*
X77423554Y-49232029D01*
X77415496Y-49209507D01*
X77409684Y-49186303D01*
X77406174Y-49162642D01*
X77405000Y-49138750D01*
X77405000Y-48651250D01*
X77406174Y-48627358D01*
X77409684Y-48603697D01*
X77415496Y-48580493D01*
X77423554Y-48557971D01*
X77433782Y-48536347D01*
X77446079Y-48515830D01*
X77460329Y-48496617D01*
X77476393Y-48478893D01*
X77494117Y-48462829D01*
X77513330Y-48448579D01*
X77533847Y-48436282D01*
X77555471Y-48426054D01*
X77577993Y-48417996D01*
X77601197Y-48412184D01*
X77624858Y-48408674D01*
X77648750Y-48407500D01*
X78561250Y-48407500D01*
X78585142Y-48408674D01*
X78585142Y-48408674D01*
G37*
D17*
X78105000Y-48895000D03*
D16*
G36*
X60805142Y-49283674D02*
G01*
X60828803Y-49287184D01*
X60852007Y-49292996D01*
X60874529Y-49301054D01*
X60896153Y-49311282D01*
X60916670Y-49323579D01*
X60935883Y-49337829D01*
X60953607Y-49353893D01*
X60969671Y-49371617D01*
X60983921Y-49390830D01*
X60996218Y-49411347D01*
X61006446Y-49432971D01*
X61014504Y-49455493D01*
X61020316Y-49478697D01*
X61023826Y-49502358D01*
X61025000Y-49526250D01*
X61025000Y-50013750D01*
X61023826Y-50037642D01*
X61020316Y-50061303D01*
X61014504Y-50084507D01*
X61006446Y-50107029D01*
X60996218Y-50128653D01*
X60983921Y-50149170D01*
X60969671Y-50168383D01*
X60953607Y-50186107D01*
X60935883Y-50202171D01*
X60916670Y-50216421D01*
X60896153Y-50228718D01*
X60874529Y-50238946D01*
X60852007Y-50247004D01*
X60828803Y-50252816D01*
X60805142Y-50256326D01*
X60781250Y-50257500D01*
X59868750Y-50257500D01*
X59844858Y-50256326D01*
X59821197Y-50252816D01*
X59797993Y-50247004D01*
X59775471Y-50238946D01*
X59753847Y-50228718D01*
X59733330Y-50216421D01*
X59714117Y-50202171D01*
X59696393Y-50186107D01*
X59680329Y-50168383D01*
X59666079Y-50149170D01*
X59653782Y-50128653D01*
X59643554Y-50107029D01*
X59635496Y-50084507D01*
X59629684Y-50061303D01*
X59626174Y-50037642D01*
X59625000Y-50013750D01*
X59625000Y-49526250D01*
X59626174Y-49502358D01*
X59629684Y-49478697D01*
X59635496Y-49455493D01*
X59643554Y-49432971D01*
X59653782Y-49411347D01*
X59666079Y-49390830D01*
X59680329Y-49371617D01*
X59696393Y-49353893D01*
X59714117Y-49337829D01*
X59733330Y-49323579D01*
X59753847Y-49311282D01*
X59775471Y-49301054D01*
X59797993Y-49292996D01*
X59821197Y-49287184D01*
X59844858Y-49283674D01*
X59868750Y-49282500D01*
X60781250Y-49282500D01*
X60805142Y-49283674D01*
X60805142Y-49283674D01*
G37*
D17*
X60325000Y-49770000D03*
D16*
G36*
X60805142Y-47408674D02*
G01*
X60828803Y-47412184D01*
X60852007Y-47417996D01*
X60874529Y-47426054D01*
X60896153Y-47436282D01*
X60916670Y-47448579D01*
X60935883Y-47462829D01*
X60953607Y-47478893D01*
X60969671Y-47496617D01*
X60983921Y-47515830D01*
X60996218Y-47536347D01*
X61006446Y-47557971D01*
X61014504Y-47580493D01*
X61020316Y-47603697D01*
X61023826Y-47627358D01*
X61025000Y-47651250D01*
X61025000Y-48138750D01*
X61023826Y-48162642D01*
X61020316Y-48186303D01*
X61014504Y-48209507D01*
X61006446Y-48232029D01*
X60996218Y-48253653D01*
X60983921Y-48274170D01*
X60969671Y-48293383D01*
X60953607Y-48311107D01*
X60935883Y-48327171D01*
X60916670Y-48341421D01*
X60896153Y-48353718D01*
X60874529Y-48363946D01*
X60852007Y-48372004D01*
X60828803Y-48377816D01*
X60805142Y-48381326D01*
X60781250Y-48382500D01*
X59868750Y-48382500D01*
X59844858Y-48381326D01*
X59821197Y-48377816D01*
X59797993Y-48372004D01*
X59775471Y-48363946D01*
X59753847Y-48353718D01*
X59733330Y-48341421D01*
X59714117Y-48327171D01*
X59696393Y-48311107D01*
X59680329Y-48293383D01*
X59666079Y-48274170D01*
X59653782Y-48253653D01*
X59643554Y-48232029D01*
X59635496Y-48209507D01*
X59629684Y-48186303D01*
X59626174Y-48162642D01*
X59625000Y-48138750D01*
X59625000Y-47651250D01*
X59626174Y-47627358D01*
X59629684Y-47603697D01*
X59635496Y-47580493D01*
X59643554Y-47557971D01*
X59653782Y-47536347D01*
X59666079Y-47515830D01*
X59680329Y-47496617D01*
X59696393Y-47478893D01*
X59714117Y-47462829D01*
X59733330Y-47448579D01*
X59753847Y-47436282D01*
X59775471Y-47426054D01*
X59797993Y-47417996D01*
X59821197Y-47412184D01*
X59844858Y-47408674D01*
X59868750Y-47407500D01*
X60781250Y-47407500D01*
X60805142Y-47408674D01*
X60805142Y-47408674D01*
G37*
D17*
X60325000Y-47895000D03*
D16*
G36*
X60805142Y-44598674D02*
G01*
X60828803Y-44602184D01*
X60852007Y-44607996D01*
X60874529Y-44616054D01*
X60896153Y-44626282D01*
X60916670Y-44638579D01*
X60935883Y-44652829D01*
X60953607Y-44668893D01*
X60969671Y-44686617D01*
X60983921Y-44705830D01*
X60996218Y-44726347D01*
X61006446Y-44747971D01*
X61014504Y-44770493D01*
X61020316Y-44793697D01*
X61023826Y-44817358D01*
X61025000Y-44841250D01*
X61025000Y-45328750D01*
X61023826Y-45352642D01*
X61020316Y-45376303D01*
X61014504Y-45399507D01*
X61006446Y-45422029D01*
X60996218Y-45443653D01*
X60983921Y-45464170D01*
X60969671Y-45483383D01*
X60953607Y-45501107D01*
X60935883Y-45517171D01*
X60916670Y-45531421D01*
X60896153Y-45543718D01*
X60874529Y-45553946D01*
X60852007Y-45562004D01*
X60828803Y-45567816D01*
X60805142Y-45571326D01*
X60781250Y-45572500D01*
X59868750Y-45572500D01*
X59844858Y-45571326D01*
X59821197Y-45567816D01*
X59797993Y-45562004D01*
X59775471Y-45553946D01*
X59753847Y-45543718D01*
X59733330Y-45531421D01*
X59714117Y-45517171D01*
X59696393Y-45501107D01*
X59680329Y-45483383D01*
X59666079Y-45464170D01*
X59653782Y-45443653D01*
X59643554Y-45422029D01*
X59635496Y-45399507D01*
X59629684Y-45376303D01*
X59626174Y-45352642D01*
X59625000Y-45328750D01*
X59625000Y-44841250D01*
X59626174Y-44817358D01*
X59629684Y-44793697D01*
X59635496Y-44770493D01*
X59643554Y-44747971D01*
X59653782Y-44726347D01*
X59666079Y-44705830D01*
X59680329Y-44686617D01*
X59696393Y-44668893D01*
X59714117Y-44652829D01*
X59733330Y-44638579D01*
X59753847Y-44626282D01*
X59775471Y-44616054D01*
X59797993Y-44607996D01*
X59821197Y-44602184D01*
X59844858Y-44598674D01*
X59868750Y-44597500D01*
X60781250Y-44597500D01*
X60805142Y-44598674D01*
X60805142Y-44598674D01*
G37*
D17*
X60325000Y-45085000D03*
D16*
G36*
X60805142Y-42723674D02*
G01*
X60828803Y-42727184D01*
X60852007Y-42732996D01*
X60874529Y-42741054D01*
X60896153Y-42751282D01*
X60916670Y-42763579D01*
X60935883Y-42777829D01*
X60953607Y-42793893D01*
X60969671Y-42811617D01*
X60983921Y-42830830D01*
X60996218Y-42851347D01*
X61006446Y-42872971D01*
X61014504Y-42895493D01*
X61020316Y-42918697D01*
X61023826Y-42942358D01*
X61025000Y-42966250D01*
X61025000Y-43453750D01*
X61023826Y-43477642D01*
X61020316Y-43501303D01*
X61014504Y-43524507D01*
X61006446Y-43547029D01*
X60996218Y-43568653D01*
X60983921Y-43589170D01*
X60969671Y-43608383D01*
X60953607Y-43626107D01*
X60935883Y-43642171D01*
X60916670Y-43656421D01*
X60896153Y-43668718D01*
X60874529Y-43678946D01*
X60852007Y-43687004D01*
X60828803Y-43692816D01*
X60805142Y-43696326D01*
X60781250Y-43697500D01*
X59868750Y-43697500D01*
X59844858Y-43696326D01*
X59821197Y-43692816D01*
X59797993Y-43687004D01*
X59775471Y-43678946D01*
X59753847Y-43668718D01*
X59733330Y-43656421D01*
X59714117Y-43642171D01*
X59696393Y-43626107D01*
X59680329Y-43608383D01*
X59666079Y-43589170D01*
X59653782Y-43568653D01*
X59643554Y-43547029D01*
X59635496Y-43524507D01*
X59629684Y-43501303D01*
X59626174Y-43477642D01*
X59625000Y-43453750D01*
X59625000Y-42966250D01*
X59626174Y-42942358D01*
X59629684Y-42918697D01*
X59635496Y-42895493D01*
X59643554Y-42872971D01*
X59653782Y-42851347D01*
X59666079Y-42830830D01*
X59680329Y-42811617D01*
X59696393Y-42793893D01*
X59714117Y-42777829D01*
X59733330Y-42763579D01*
X59753847Y-42751282D01*
X59775471Y-42741054D01*
X59797993Y-42732996D01*
X59821197Y-42727184D01*
X59844858Y-42723674D01*
X59868750Y-42722500D01*
X60781250Y-42722500D01*
X60805142Y-42723674D01*
X60805142Y-42723674D01*
G37*
D17*
X60325000Y-43210000D03*
D16*
G36*
X56995142Y-42723674D02*
G01*
X57018803Y-42727184D01*
X57042007Y-42732996D01*
X57064529Y-42741054D01*
X57086153Y-42751282D01*
X57106670Y-42763579D01*
X57125883Y-42777829D01*
X57143607Y-42793893D01*
X57159671Y-42811617D01*
X57173921Y-42830830D01*
X57186218Y-42851347D01*
X57196446Y-42872971D01*
X57204504Y-42895493D01*
X57210316Y-42918697D01*
X57213826Y-42942358D01*
X57215000Y-42966250D01*
X57215000Y-43453750D01*
X57213826Y-43477642D01*
X57210316Y-43501303D01*
X57204504Y-43524507D01*
X57196446Y-43547029D01*
X57186218Y-43568653D01*
X57173921Y-43589170D01*
X57159671Y-43608383D01*
X57143607Y-43626107D01*
X57125883Y-43642171D01*
X57106670Y-43656421D01*
X57086153Y-43668718D01*
X57064529Y-43678946D01*
X57042007Y-43687004D01*
X57018803Y-43692816D01*
X56995142Y-43696326D01*
X56971250Y-43697500D01*
X56058750Y-43697500D01*
X56034858Y-43696326D01*
X56011197Y-43692816D01*
X55987993Y-43687004D01*
X55965471Y-43678946D01*
X55943847Y-43668718D01*
X55923330Y-43656421D01*
X55904117Y-43642171D01*
X55886393Y-43626107D01*
X55870329Y-43608383D01*
X55856079Y-43589170D01*
X55843782Y-43568653D01*
X55833554Y-43547029D01*
X55825496Y-43524507D01*
X55819684Y-43501303D01*
X55816174Y-43477642D01*
X55815000Y-43453750D01*
X55815000Y-42966250D01*
X55816174Y-42942358D01*
X55819684Y-42918697D01*
X55825496Y-42895493D01*
X55833554Y-42872971D01*
X55843782Y-42851347D01*
X55856079Y-42830830D01*
X55870329Y-42811617D01*
X55886393Y-42793893D01*
X55904117Y-42777829D01*
X55923330Y-42763579D01*
X55943847Y-42751282D01*
X55965471Y-42741054D01*
X55987993Y-42732996D01*
X56011197Y-42727184D01*
X56034858Y-42723674D01*
X56058750Y-42722500D01*
X56971250Y-42722500D01*
X56995142Y-42723674D01*
X56995142Y-42723674D01*
G37*
D17*
X56515000Y-43210000D03*
D16*
G36*
X56995142Y-44598674D02*
G01*
X57018803Y-44602184D01*
X57042007Y-44607996D01*
X57064529Y-44616054D01*
X57086153Y-44626282D01*
X57106670Y-44638579D01*
X57125883Y-44652829D01*
X57143607Y-44668893D01*
X57159671Y-44686617D01*
X57173921Y-44705830D01*
X57186218Y-44726347D01*
X57196446Y-44747971D01*
X57204504Y-44770493D01*
X57210316Y-44793697D01*
X57213826Y-44817358D01*
X57215000Y-44841250D01*
X57215000Y-45328750D01*
X57213826Y-45352642D01*
X57210316Y-45376303D01*
X57204504Y-45399507D01*
X57196446Y-45422029D01*
X57186218Y-45443653D01*
X57173921Y-45464170D01*
X57159671Y-45483383D01*
X57143607Y-45501107D01*
X57125883Y-45517171D01*
X57106670Y-45531421D01*
X57086153Y-45543718D01*
X57064529Y-45553946D01*
X57042007Y-45562004D01*
X57018803Y-45567816D01*
X56995142Y-45571326D01*
X56971250Y-45572500D01*
X56058750Y-45572500D01*
X56034858Y-45571326D01*
X56011197Y-45567816D01*
X55987993Y-45562004D01*
X55965471Y-45553946D01*
X55943847Y-45543718D01*
X55923330Y-45531421D01*
X55904117Y-45517171D01*
X55886393Y-45501107D01*
X55870329Y-45483383D01*
X55856079Y-45464170D01*
X55843782Y-45443653D01*
X55833554Y-45422029D01*
X55825496Y-45399507D01*
X55819684Y-45376303D01*
X55816174Y-45352642D01*
X55815000Y-45328750D01*
X55815000Y-44841250D01*
X55816174Y-44817358D01*
X55819684Y-44793697D01*
X55825496Y-44770493D01*
X55833554Y-44747971D01*
X55843782Y-44726347D01*
X55856079Y-44705830D01*
X55870329Y-44686617D01*
X55886393Y-44668893D01*
X55904117Y-44652829D01*
X55923330Y-44638579D01*
X55943847Y-44626282D01*
X55965471Y-44616054D01*
X55987993Y-44607996D01*
X56011197Y-44602184D01*
X56034858Y-44598674D01*
X56058750Y-44597500D01*
X56971250Y-44597500D01*
X56995142Y-44598674D01*
X56995142Y-44598674D01*
G37*
D17*
X56515000Y-45085000D03*
D16*
G36*
X87475142Y-47743674D02*
G01*
X87498803Y-47747184D01*
X87522007Y-47752996D01*
X87544529Y-47761054D01*
X87566153Y-47771282D01*
X87586670Y-47783579D01*
X87605883Y-47797829D01*
X87623607Y-47813893D01*
X87639671Y-47831617D01*
X87653921Y-47850830D01*
X87666218Y-47871347D01*
X87676446Y-47892971D01*
X87684504Y-47915493D01*
X87690316Y-47938697D01*
X87693826Y-47962358D01*
X87695000Y-47986250D01*
X87695000Y-48473750D01*
X87693826Y-48497642D01*
X87690316Y-48521303D01*
X87684504Y-48544507D01*
X87676446Y-48567029D01*
X87666218Y-48588653D01*
X87653921Y-48609170D01*
X87639671Y-48628383D01*
X87623607Y-48646107D01*
X87605883Y-48662171D01*
X87586670Y-48676421D01*
X87566153Y-48688718D01*
X87544529Y-48698946D01*
X87522007Y-48707004D01*
X87498803Y-48712816D01*
X87475142Y-48716326D01*
X87451250Y-48717500D01*
X86538750Y-48717500D01*
X86514858Y-48716326D01*
X86491197Y-48712816D01*
X86467993Y-48707004D01*
X86445471Y-48698946D01*
X86423847Y-48688718D01*
X86403330Y-48676421D01*
X86384117Y-48662171D01*
X86366393Y-48646107D01*
X86350329Y-48628383D01*
X86336079Y-48609170D01*
X86323782Y-48588653D01*
X86313554Y-48567029D01*
X86305496Y-48544507D01*
X86299684Y-48521303D01*
X86296174Y-48497642D01*
X86295000Y-48473750D01*
X86295000Y-47986250D01*
X86296174Y-47962358D01*
X86299684Y-47938697D01*
X86305496Y-47915493D01*
X86313554Y-47892971D01*
X86323782Y-47871347D01*
X86336079Y-47850830D01*
X86350329Y-47831617D01*
X86366393Y-47813893D01*
X86384117Y-47797829D01*
X86403330Y-47783579D01*
X86423847Y-47771282D01*
X86445471Y-47761054D01*
X86467993Y-47752996D01*
X86491197Y-47747184D01*
X86514858Y-47743674D01*
X86538750Y-47742500D01*
X87451250Y-47742500D01*
X87475142Y-47743674D01*
X87475142Y-47743674D01*
G37*
D17*
X86995000Y-48230000D03*
D16*
G36*
X87475142Y-45868674D02*
G01*
X87498803Y-45872184D01*
X87522007Y-45877996D01*
X87544529Y-45886054D01*
X87566153Y-45896282D01*
X87586670Y-45908579D01*
X87605883Y-45922829D01*
X87623607Y-45938893D01*
X87639671Y-45956617D01*
X87653921Y-45975830D01*
X87666218Y-45996347D01*
X87676446Y-46017971D01*
X87684504Y-46040493D01*
X87690316Y-46063697D01*
X87693826Y-46087358D01*
X87695000Y-46111250D01*
X87695000Y-46598750D01*
X87693826Y-46622642D01*
X87690316Y-46646303D01*
X87684504Y-46669507D01*
X87676446Y-46692029D01*
X87666218Y-46713653D01*
X87653921Y-46734170D01*
X87639671Y-46753383D01*
X87623607Y-46771107D01*
X87605883Y-46787171D01*
X87586670Y-46801421D01*
X87566153Y-46813718D01*
X87544529Y-46823946D01*
X87522007Y-46832004D01*
X87498803Y-46837816D01*
X87475142Y-46841326D01*
X87451250Y-46842500D01*
X86538750Y-46842500D01*
X86514858Y-46841326D01*
X86491197Y-46837816D01*
X86467993Y-46832004D01*
X86445471Y-46823946D01*
X86423847Y-46813718D01*
X86403330Y-46801421D01*
X86384117Y-46787171D01*
X86366393Y-46771107D01*
X86350329Y-46753383D01*
X86336079Y-46734170D01*
X86323782Y-46713653D01*
X86313554Y-46692029D01*
X86305496Y-46669507D01*
X86299684Y-46646303D01*
X86296174Y-46622642D01*
X86295000Y-46598750D01*
X86295000Y-46111250D01*
X86296174Y-46087358D01*
X86299684Y-46063697D01*
X86305496Y-46040493D01*
X86313554Y-46017971D01*
X86323782Y-45996347D01*
X86336079Y-45975830D01*
X86350329Y-45956617D01*
X86366393Y-45938893D01*
X86384117Y-45922829D01*
X86403330Y-45908579D01*
X86423847Y-45896282D01*
X86445471Y-45886054D01*
X86467993Y-45877996D01*
X86491197Y-45872184D01*
X86514858Y-45868674D01*
X86538750Y-45867500D01*
X87451250Y-45867500D01*
X87475142Y-45868674D01*
X87475142Y-45868674D01*
G37*
D17*
X86995000Y-46355000D03*
D16*
G36*
X56995142Y-51613674D02*
G01*
X57018803Y-51617184D01*
X57042007Y-51622996D01*
X57064529Y-51631054D01*
X57086153Y-51641282D01*
X57106670Y-51653579D01*
X57125883Y-51667829D01*
X57143607Y-51683893D01*
X57159671Y-51701617D01*
X57173921Y-51720830D01*
X57186218Y-51741347D01*
X57196446Y-51762971D01*
X57204504Y-51785493D01*
X57210316Y-51808697D01*
X57213826Y-51832358D01*
X57215000Y-51856250D01*
X57215000Y-52343750D01*
X57213826Y-52367642D01*
X57210316Y-52391303D01*
X57204504Y-52414507D01*
X57196446Y-52437029D01*
X57186218Y-52458653D01*
X57173921Y-52479170D01*
X57159671Y-52498383D01*
X57143607Y-52516107D01*
X57125883Y-52532171D01*
X57106670Y-52546421D01*
X57086153Y-52558718D01*
X57064529Y-52568946D01*
X57042007Y-52577004D01*
X57018803Y-52582816D01*
X56995142Y-52586326D01*
X56971250Y-52587500D01*
X56058750Y-52587500D01*
X56034858Y-52586326D01*
X56011197Y-52582816D01*
X55987993Y-52577004D01*
X55965471Y-52568946D01*
X55943847Y-52558718D01*
X55923330Y-52546421D01*
X55904117Y-52532171D01*
X55886393Y-52516107D01*
X55870329Y-52498383D01*
X55856079Y-52479170D01*
X55843782Y-52458653D01*
X55833554Y-52437029D01*
X55825496Y-52414507D01*
X55819684Y-52391303D01*
X55816174Y-52367642D01*
X55815000Y-52343750D01*
X55815000Y-51856250D01*
X55816174Y-51832358D01*
X55819684Y-51808697D01*
X55825496Y-51785493D01*
X55833554Y-51762971D01*
X55843782Y-51741347D01*
X55856079Y-51720830D01*
X55870329Y-51701617D01*
X55886393Y-51683893D01*
X55904117Y-51667829D01*
X55923330Y-51653579D01*
X55943847Y-51641282D01*
X55965471Y-51631054D01*
X55987993Y-51622996D01*
X56011197Y-51617184D01*
X56034858Y-51613674D01*
X56058750Y-51612500D01*
X56971250Y-51612500D01*
X56995142Y-51613674D01*
X56995142Y-51613674D01*
G37*
D17*
X56515000Y-52100000D03*
D16*
G36*
X56995142Y-53488674D02*
G01*
X57018803Y-53492184D01*
X57042007Y-53497996D01*
X57064529Y-53506054D01*
X57086153Y-53516282D01*
X57106670Y-53528579D01*
X57125883Y-53542829D01*
X57143607Y-53558893D01*
X57159671Y-53576617D01*
X57173921Y-53595830D01*
X57186218Y-53616347D01*
X57196446Y-53637971D01*
X57204504Y-53660493D01*
X57210316Y-53683697D01*
X57213826Y-53707358D01*
X57215000Y-53731250D01*
X57215000Y-54218750D01*
X57213826Y-54242642D01*
X57210316Y-54266303D01*
X57204504Y-54289507D01*
X57196446Y-54312029D01*
X57186218Y-54333653D01*
X57173921Y-54354170D01*
X57159671Y-54373383D01*
X57143607Y-54391107D01*
X57125883Y-54407171D01*
X57106670Y-54421421D01*
X57086153Y-54433718D01*
X57064529Y-54443946D01*
X57042007Y-54452004D01*
X57018803Y-54457816D01*
X56995142Y-54461326D01*
X56971250Y-54462500D01*
X56058750Y-54462500D01*
X56034858Y-54461326D01*
X56011197Y-54457816D01*
X55987993Y-54452004D01*
X55965471Y-54443946D01*
X55943847Y-54433718D01*
X55923330Y-54421421D01*
X55904117Y-54407171D01*
X55886393Y-54391107D01*
X55870329Y-54373383D01*
X55856079Y-54354170D01*
X55843782Y-54333653D01*
X55833554Y-54312029D01*
X55825496Y-54289507D01*
X55819684Y-54266303D01*
X55816174Y-54242642D01*
X55815000Y-54218750D01*
X55815000Y-53731250D01*
X55816174Y-53707358D01*
X55819684Y-53683697D01*
X55825496Y-53660493D01*
X55833554Y-53637971D01*
X55843782Y-53616347D01*
X55856079Y-53595830D01*
X55870329Y-53576617D01*
X55886393Y-53558893D01*
X55904117Y-53542829D01*
X55923330Y-53528579D01*
X55943847Y-53516282D01*
X55965471Y-53506054D01*
X55987993Y-53497996D01*
X56011197Y-53492184D01*
X56034858Y-53488674D01*
X56058750Y-53487500D01*
X56971250Y-53487500D01*
X56995142Y-53488674D01*
X56995142Y-53488674D01*
G37*
D17*
X56515000Y-53975000D03*
D19*
X73660000Y-61595000D03*
X59360000Y-37639800D03*
X79934200Y-35930800D03*
X88297500Y-54663700D03*
X85389600Y-48867300D03*
X88407100Y-45329700D03*
X84483200Y-41358400D03*
X57946600Y-47244100D03*
X84043800Y-43376300D03*
X59572100Y-55364400D03*
X80016500Y-62633300D03*
X77667000Y-62624800D03*
X79990300Y-43234800D03*
X66100300Y-43771800D03*
X68958800Y-47585000D03*
X71718600Y-52056800D03*
X72072500Y-57399200D03*
D20*
X78740000Y-63802500D02*
X80682300Y-63802500D01*
X80682300Y-63802500D02*
X89347300Y-55137500D01*
X89347300Y-55137500D02*
X89347300Y-44505300D01*
X89347300Y-44505300D02*
X80007000Y-35165000D01*
X80007000Y-35165000D02*
X74880000Y-35165000D01*
X73660000Y-61595000D02*
X75003100Y-62938100D01*
X75003100Y-62938100D02*
X76805300Y-62938100D01*
X76805300Y-62938100D02*
X77669700Y-63802500D01*
X77669700Y-63802500D02*
X78740000Y-63802500D01*
D21*
X60960000Y-61595000D02*
X73660000Y-61595000D01*
D20*
X65435000Y-59690000D02*
X57785000Y-59690000D01*
X57785000Y-59690000D02*
X55880000Y-61595000D01*
X60325000Y-47895000D02*
X60325000Y-47510300D01*
X60325000Y-47510300D02*
X57075500Y-44260800D01*
X57075500Y-44260800D02*
X56143900Y-44260800D01*
X56143900Y-44260800D02*
X55573700Y-43690600D01*
X55573700Y-43690600D02*
X55573700Y-42706600D01*
X55573700Y-42706600D02*
X56370300Y-41910000D01*
X60325000Y-52100000D02*
X61270200Y-51154800D01*
X61270200Y-51154800D02*
X61270200Y-48840200D01*
X61270200Y-48840200D02*
X60325000Y-47895000D01*
X56370300Y-41910000D02*
X59025000Y-41910000D01*
X59025000Y-41910000D02*
X60325000Y-43210000D01*
X56515000Y-38735000D02*
X55569700Y-39680300D01*
X55569700Y-39680300D02*
X55569700Y-41109400D01*
X55569700Y-41109400D02*
X56370300Y-41910000D01*
X59360000Y-37639800D02*
X57610200Y-37639800D01*
X57610200Y-37639800D02*
X56515000Y-38735000D01*
X60325000Y-34802500D02*
X69292800Y-34802500D01*
X69292800Y-34802500D02*
X73760100Y-39269800D01*
X73760100Y-39269800D02*
X74880000Y-39269800D01*
X59360000Y-37639800D02*
X59360000Y-35767500D01*
X59360000Y-35767500D02*
X60325000Y-34802500D01*
X60325000Y-34802500D02*
X60325000Y-34320000D01*
X74880000Y-39269800D02*
X77872700Y-39269800D01*
X77872700Y-39269800D02*
X78740000Y-38402500D01*
X74880000Y-39765000D02*
X74880000Y-39269800D01*
X56515000Y-52100000D02*
X60325000Y-52100000D01*
X81605000Y-61435000D02*
X81605000Y-55555000D01*
X81605000Y-55555000D02*
X86995000Y-50165000D01*
X76605000Y-61435000D02*
X78247500Y-61435000D01*
X78247500Y-61435000D02*
X78740000Y-61927500D01*
X65435000Y-59690000D02*
X66382900Y-60637900D01*
X66382900Y-60637900D02*
X72129600Y-60637900D01*
X72129600Y-60637900D02*
X73342500Y-59425000D01*
X73342500Y-58559700D02*
X73342500Y-59425000D01*
X73342500Y-58559700D02*
X73342500Y-57694400D01*
X73342500Y-57694400D02*
X72707500Y-57059400D01*
X72707500Y-57059400D02*
X72707500Y-53200300D01*
X67310000Y-59690000D02*
X62342900Y-54722900D01*
X62342900Y-54722900D02*
X59648400Y-54722900D01*
X59648400Y-54722900D02*
X57963000Y-53037500D01*
X57963000Y-53037500D02*
X56052600Y-53037500D01*
X56052600Y-53037500D02*
X55568600Y-52553500D01*
X55568600Y-52553500D02*
X55568600Y-46031400D01*
X55568600Y-46031400D02*
X56515000Y-45085000D01*
X71437500Y-59425000D02*
X71115700Y-59746800D01*
X71115700Y-59746800D02*
X67366800Y-59746800D01*
X67366800Y-59746800D02*
X67310000Y-59690000D01*
X78740000Y-36527500D02*
X79337500Y-36527500D01*
X79337500Y-36527500D02*
X79934200Y-35930800D01*
X74880000Y-36969800D02*
X78297700Y-36969800D01*
X78297700Y-36969800D02*
X78740000Y-36527500D01*
X74880000Y-36969800D02*
X74880000Y-36474700D01*
X74880000Y-37465000D02*
X74880000Y-36969800D01*
X56515000Y-45085000D02*
X55245300Y-43815300D01*
X55245300Y-43815300D02*
X55245300Y-37962900D01*
X55245300Y-37962900D02*
X59617900Y-33590300D01*
X59617900Y-33590300D02*
X71005300Y-33590300D01*
X71005300Y-33590300D02*
X73889700Y-36474700D01*
X73889700Y-36474700D02*
X74880000Y-36474700D01*
X71437500Y-58559700D02*
X71437500Y-56654400D01*
X71437500Y-56654400D02*
X69701100Y-54918000D01*
X69701100Y-54918000D02*
X69701100Y-51610200D01*
X69701100Y-51610200D02*
X70485000Y-50826300D01*
X73342500Y-52335000D02*
X71833800Y-50826300D01*
X71833800Y-50826300D02*
X70485000Y-50826300D01*
X73342500Y-52767600D02*
X73342500Y-52335000D01*
X73342500Y-53200300D02*
X73342500Y-52767600D01*
X73977500Y-52767600D02*
X73977500Y-52335000D01*
X73977500Y-53200300D02*
X73977500Y-52767600D01*
X73977500Y-52767600D02*
X73342500Y-52767600D01*
X74612500Y-53200300D02*
X74612500Y-52335000D01*
X74612500Y-52335000D02*
X73977500Y-52335000D01*
X70485000Y-50770000D02*
X70485000Y-50826300D01*
X71437500Y-58559700D02*
X71437500Y-59425000D01*
X88297500Y-54663700D02*
X89027000Y-53934200D01*
X89027000Y-53934200D02*
X89027000Y-45053300D01*
X89027000Y-45053300D02*
X84741800Y-40768100D01*
X84741800Y-40768100D02*
X66478200Y-40768100D01*
X66478200Y-40768100D02*
X64445100Y-38735000D01*
X64445100Y-38735000D02*
X60325000Y-38735000D01*
X60325000Y-38735000D02*
X60325000Y-36195000D01*
X60325000Y-53975000D02*
X61791400Y-52508600D01*
X61791400Y-52508600D02*
X61791400Y-51195400D01*
X61791400Y-51195400D02*
X67172200Y-45814600D01*
X67172200Y-45814600D02*
X69018800Y-45814600D01*
X69018800Y-45814600D02*
X69149600Y-45945400D01*
X69149600Y-45945400D02*
X71047500Y-45945400D01*
X71047500Y-45945400D02*
X73138900Y-43854000D01*
X73138900Y-43854000D02*
X80376300Y-43854000D01*
X80376300Y-43854000D02*
X85389600Y-48867300D01*
X85389600Y-48867300D02*
X85515300Y-48993000D01*
X85515300Y-48993000D02*
X87683500Y-48993000D01*
X87683500Y-48993000D02*
X87975100Y-48701400D01*
X87975100Y-48701400D02*
X87975100Y-47335100D01*
X87975100Y-47335100D02*
X86995000Y-46355000D01*
X86995000Y-52040000D02*
X88689200Y-50345800D01*
X88689200Y-50345800D02*
X88689200Y-45611800D01*
X88689200Y-45611800D02*
X88407100Y-45329700D01*
X56515000Y-40610000D02*
X57276700Y-39848300D01*
X57276700Y-39848300D02*
X63631200Y-39848300D01*
X63631200Y-39848300D02*
X65141300Y-41358400D01*
X65141300Y-41358400D02*
X84483200Y-41358400D01*
X57946600Y-47244100D02*
X60325000Y-49622500D01*
X60325000Y-49622500D02*
X60325000Y-49770000D01*
X84043800Y-43376300D02*
X83275600Y-42608100D01*
X83275600Y-42608100D02*
X71488800Y-42608100D01*
X71488800Y-42608100D02*
X69011900Y-45085000D01*
X69011900Y-45085000D02*
X60325000Y-45085000D01*
X56515000Y-53975000D02*
X58182700Y-53975000D01*
X58182700Y-53975000D02*
X59572100Y-55364400D01*
X75247500Y-53200300D02*
X75247500Y-52335000D01*
X75247500Y-52335000D02*
X76261000Y-52335000D01*
X76261000Y-52335000D02*
X80016500Y-56090500D01*
X80016500Y-56090500D02*
X80016500Y-62633300D01*
X75882500Y-54065600D02*
X76358400Y-54541500D01*
X76358400Y-54541500D02*
X76358400Y-59577500D01*
X76358400Y-59577500D02*
X75576400Y-60359500D01*
X75576400Y-60359500D02*
X75576400Y-61793800D01*
X75576400Y-61793800D02*
X76356900Y-62574300D01*
X76356900Y-62574300D02*
X77616500Y-62574300D01*
X77616500Y-62574300D02*
X77667000Y-62624800D01*
X75882500Y-53200300D02*
X75882500Y-54065600D01*
X74295000Y-50770000D02*
X75072900Y-51547900D01*
X75072900Y-51547900D02*
X84002100Y-51547900D01*
X84002100Y-51547900D02*
X86236600Y-49313400D01*
X86236600Y-49313400D02*
X87908600Y-49313400D01*
X87908600Y-49313400D02*
X88315600Y-48906400D01*
X88315600Y-48906400D02*
X88315600Y-46262000D01*
X88315600Y-46262000D02*
X84339300Y-42285700D01*
X84339300Y-42285700D02*
X69574000Y-42285700D01*
X69574000Y-42285700D02*
X67945000Y-43914700D01*
X67945000Y-44455000D02*
X67945000Y-43914700D01*
X67945000Y-46355000D02*
X72084300Y-46355000D01*
X72084300Y-46355000D02*
X72624700Y-45814600D01*
X72624700Y-45814600D02*
X74811200Y-45814600D01*
X74811200Y-45814600D02*
X75761200Y-44864600D01*
X75761200Y-44864600D02*
X77636100Y-44864600D01*
X77636100Y-44864600D02*
X78105000Y-45333500D01*
X78105000Y-45333500D02*
X78105000Y-48895000D01*
X67945000Y-46355000D02*
X67945000Y-57539000D01*
X67945000Y-57539000D02*
X69831000Y-59425000D01*
X69831000Y-59425000D02*
X70802500Y-59425000D01*
X70802500Y-58559700D02*
X70802500Y-59425000D01*
X70045000Y-45405000D02*
X69154700Y-45405000D01*
X69154700Y-45405000D02*
X69154300Y-45405400D01*
X69154300Y-45405400D02*
X66621000Y-45405400D01*
X66621000Y-45405400D02*
X66205000Y-45821400D01*
X66205000Y-45821400D02*
X59126400Y-45821400D01*
X59126400Y-45821400D02*
X56515000Y-43210000D01*
X70045000Y-45325000D02*
X70045000Y-45405000D01*
X70045000Y-45325000D02*
X70045000Y-44864700D01*
X79990300Y-43234800D02*
X81999800Y-43234800D01*
X81999800Y-43234800D02*
X86995000Y-48230000D01*
X70045000Y-44864700D02*
X71674900Y-43234800D01*
X71674900Y-43234800D02*
X79990300Y-43234800D01*
X70167500Y-58559700D02*
X70167500Y-57694400D01*
X70167500Y-57694400D02*
X69359500Y-56886400D01*
X69359500Y-56886400D02*
X69359500Y-50436700D01*
X69359500Y-50436700D02*
X70139500Y-49656700D01*
X70139500Y-49656700D02*
X73533300Y-49656700D01*
X73533300Y-49656700D02*
X74295000Y-48895000D01*
X76835000Y-45405000D02*
X76835000Y-46355000D01*
X76835000Y-46355000D02*
X74295000Y-48895000D01*
X66100300Y-43771800D02*
X62938500Y-40610000D01*
X62938500Y-40610000D02*
X60325000Y-40610000D01*
X68958800Y-47585000D02*
X70268800Y-48895000D01*
X70268800Y-48895000D02*
X70485000Y-48895000D01*
X74735000Y-46355000D02*
X74735000Y-46895300D01*
X74735000Y-46895300D02*
X72484700Y-46895300D01*
X72484700Y-46895300D02*
X70485000Y-48895000D01*
X78105000Y-50770000D02*
X79107900Y-49767100D01*
X79107900Y-49767100D02*
X79107900Y-45883300D01*
X79107900Y-45883300D02*
X77679600Y-44455000D01*
X77679600Y-44455000D02*
X74735000Y-44455000D01*
X70167500Y-52335000D02*
X71440400Y-52335000D01*
X71440400Y-52335000D02*
X71718600Y-52056800D01*
X70167500Y-53200300D02*
X70167500Y-52335000D01*
X72072500Y-58559700D02*
X72072500Y-57399200D01*
M02*
